<svg id="Layer_1" data-name="Layer 1" xmlns="http://www.w3.org/2000/svg" xmlns:xlink="http://www.w3.org/1999/xlink" viewBox="0 0 4500 2500"><defs><style>.cls-1{fill:none;}.cls-2{fill:#aed3f0;}.cls-3{fill:#c3dcf3;}.cls-11,.cls-12,.cls-13,.cls-17,.cls-18,.cls-20,.cls-21,.cls-23,.cls-24,.cls-25,.cls-26,.cls-27,.cls-3,.cls-32,.cls-33,.cls-34,.cls-35,.cls-36,.cls-37,.cls-38,.cls-42,.cls-43,.cls-5,.cls-6,.cls-7,.cls-8{fill-rule:evenodd;}.cls-4{clip-path:url(#clip-path);}.cls-5{fill-opacity:0.19;}.cls-6{fill:#4f95d6;}.cls-22,.cls-7{fill:#8ebbe5;}.cls-8{fill:#b7d4ee;}.cls-9{fill:#fff;}.cls-10{fill-opacity:0.2;}.cls-11,.cls-15{fill:#ebd063;}.cls-12{fill:#b69a22;}.cls-13,.cls-16{fill:#f9f2d4;}.cls-14{fill:#c1ab53;}.cls-17{fill-opacity:0.15;}.cls-18{fill:#1f2f5a;}.cls-19,.cls-20{fill:#2d4584;}.cls-21{fill:#62a0db;}.cls-23{fill:url(#linear-gradient);}.cls-24{fill:url(#linear-gradient-2);}.cls-25{fill:#73c4b8;}.cls-26{fill:url(#linear-gradient-3);}.cls-27,.cls-31{fill:#98d4cb;}.cls-28{fill:#388e81;}.cls-29{fill:#44ae9e;}.cls-30{fill:#368176;}.cls-32{fill:url(#linear-gradient-4);}.cls-33{fill:url(#linear-gradient-5);}.cls-34{fill:url(#linear-gradient-6);}.cls-35{fill:url(#linear-gradient-7);}.cls-36{fill:url(#linear-gradient-8);}.cls-37{fill:url(#linear-gradient-9);}.cls-38,.cls-41{fill:#f6b2cd;}.cls-39{fill:#e62e77;}.cls-40{fill:#ec6198;}.cls-42{fill:url(#linear-gradient-10);}.cls-43{fill:url(#linear-gradient-11);}</style><clipPath id="clip-path"><rect class="cls-1" width="4499.99" height="2500"/></clipPath><linearGradient id="linear-gradient" x1="1289.99" y1="1790.71" x2="1291.18" y2="1790.71" gradientTransform="matrix(1154.54, -1668.64, -1668.64, -1154.54, 1500139.77, 4220856.09)" gradientUnits="userSpaceOnUse"><stop offset="0" stop-color="#fff" stop-opacity="0"/><stop offset="1" stop-color="#fff"/></linearGradient><linearGradient id="linear-gradient-2" x1="1289.98" y1="1790.71" x2="1291.17" y2="1790.71" gradientTransform="matrix(784.41, -1133.7, -1133.7, -784.41, 1022092.15, 2869647.16)" xlink:href="#linear-gradient"/><linearGradient id="linear-gradient-3" x1="1289.39" y1="1789.16" x2="1290.58" y2="1789.16" gradientTransform="matrix(-109.41, 1313.93, 1313.92, 109.41, -2206339.86, -1889598.42)" gradientUnits="userSpaceOnUse"><stop offset="0" stop-color="#73c4b8"/><stop offset="1" stop-color="#22a491"/></linearGradient><linearGradient id="linear-gradient-4" x1="1290.53" y1="1791.01" x2="1291.71" y2="1791.01" gradientTransform="matrix(171.11, -1037.74, -1037.74, -171.11, 1640870.45, 1647043.73)" xlink:href="#linear-gradient"/><linearGradient id="linear-gradient-5" x1="1290.02" y1="1790.4" x2="1291.2" y2="1790.4" gradientTransform="matrix(1778.21, -2570, -2570, -1778.21, 2310193.75, 6500268.07)" xlink:href="#linear-gradient"/><linearGradient id="linear-gradient-6" x1="1288.61" y1="1787.48" x2="1289.79" y2="1787.48" gradientTransform="matrix(-50.36, 604.75, 604.75, 50.36, -1015936.76, -869513.38)" xlink:href="#linear-gradient-3"/><linearGradient id="linear-gradient-7" x1="1291.34" y1="1793.19" x2="1292.52" y2="1793.19" gradientTransform="matrix(78.75, -477.63, -477.63, -78.75, 754790.98, 758271.4)" xlink:href="#linear-gradient"/><linearGradient id="linear-gradient-8" x1="1289.95" y1="1791.18" x2="1291.14" y2="1791.18" gradientTransform="matrix(818.44, -1182.88, -1182.88, -818.44, 1062855.59, 2992029.96)" xlink:href="#linear-gradient"/><linearGradient id="linear-gradient-9" x1="1289.32" y1="1788.14" x2="1290.5" y2="1788.14" gradientTransform="matrix(-58.11, 898.07, 898.07, 58.11, -1530423.56, -1260361)" gradientUnits="userSpaceOnUse"><stop offset="0" stop-color="#c4406b"/><stop offset="1" stop-color="#8c1139"/></linearGradient><linearGradient id="linear-gradient-10" x1="1290.54" y1="1791.99" x2="1291.72" y2="1791.99" gradientTransform="matrix(119.61, -725.4, -725.4, -119.61, 1145878.04, 1152433.29)" xlink:href="#linear-gradient"/><linearGradient id="linear-gradient-11" x1="1289.88" y1="1790.7" x2="1291.07" y2="1790.7" gradientTransform="matrix(1243, -1796.48, -1796.48, -1243, 1613747.97, 4544930.93)" xlink:href="#linear-gradient"/></defs><rect class="cls-2" x="0.01" width="4499.99" height="2500"/><path class="cls-3" d="M0,2363.18V2500H2581.8c-333.14-227.77-672.58-447.57-1088.65-462.71-580.54-21.14-790.09,361.37-1306.73,381.44C137.22,2420.64,71.87,2397.65,0,2363.18ZM1886,0H0V564.73c36.83,9.39,72.9,17.41,107.57,23.91,450.66,84.5,944.49-96.34,1331-320.14C1579.84,186.68,1730.7,86.25,1886,0ZM4500,488.68V0H2937q25.93,24.38,51.52,52.24c209.79,228.69,312.58,344.8,630.06,410.4C3944,529.9,4237.43,475,4500,488.68Z"/><rect class="cls-1" width="4499.99" height="2500"/><g class="cls-4"><path class="cls-5" d="M2345.27,1780.79a53.19,53.19,0,0,0-53.07-53.25H1267.62a53.19,53.19,0,0,0-53.08,53.25v433.46a53.19,53.19,0,0,0,53.08,53.25H2292.2a53.19,53.19,0,0,0,53.07-53.25Z"/><path class="cls-6" d="M2290.82,1718.17a53.19,53.19,0,0,0-53.08-53.25H1213.17a53.19,53.19,0,0,0-53.08,53.25v433.47a53.19,53.19,0,0,0,53.08,53.25H2237.74a53.19,53.19,0,0,0,53.08-53.25Z"/><path class="cls-7" d="M2263.22,1718.17a53.19,53.19,0,0,0-53.07-53.25H1185.57a53.19,53.19,0,0,0-53.08,53.25v433.47a53.19,53.19,0,0,0,53.08,53.25H2210.15a53.19,53.19,0,0,0,53.07-53.25Z"/><path class="cls-8" d="M1677.75,1755.2a15.43,15.43,0,0,0-15.4-15.43h-434a15.43,15.43,0,0,0-15.4,15.43v145.47a15.43,15.43,0,0,0,15.4,15.43h434a15.43,15.43,0,0,0,15.4-15.43Z"/><path class="cls-8" d="M2168.22,1755.2a15.42,15.42,0,0,0-15.39-15.43h-434a15.42,15.42,0,0,0-15.39,15.43v145.47a15.42,15.42,0,0,0,15.39,15.43h434a15.42,15.42,0,0,0,15.39-15.43Z"/><path class="cls-8" d="M1677.75,1958.18a15.42,15.42,0,0,0-15.4-15.43h-434a15.42,15.42,0,0,0-15.4,15.43v145.46a15.43,15.43,0,0,0,15.4,15.44h434a15.43,15.43,0,0,0,15.4-15.44Z"/><path class="cls-8" d="M2168.32,1958.18a15.41,15.41,0,0,0-15.39-15.43H2009a15.42,15.42,0,0,0-15.39,15.43v145.46a15.43,15.43,0,0,0,15.39,15.44h143.93a15.42,15.42,0,0,0,15.39-15.44Z"/><path class="cls-9" d="M1287.87,1798.38a21,21,0,0,1,1.68-8.62,20,20,0,0,1,4.49-6.47,19.61,19.61,0,0,1,6.52-4.11,21.84,21.84,0,0,1,15.44,0,19.61,19.61,0,0,1,6.52,4.11,20,20,0,0,1,4.49,6.47,21,21,0,0,1,1.68,8.62v56.32a21,21,0,0,1-1.68,8.62,20,20,0,0,1-4.49,6.47,19.61,19.61,0,0,1-6.52,4.11,21.84,21.84,0,0,1-15.44,0,19.61,19.61,0,0,1-6.52-4.11,20,20,0,0,1-4.49-6.47,21,21,0,0,1-1.68-8.62Zm13.7,56.32a6.77,6.77,0,0,0,1.88,4.91,6.93,6.93,0,0,0,9.66,0,6.77,6.77,0,0,0,1.88-4.91v-56.32a6.79,6.79,0,0,0-1.88-4.92,7,7,0,0,0-9.66,0,6.79,6.79,0,0,0-1.88,4.92Z"/><path class="cls-9" d="M1338.9,1874.5v-13.74h13.7v13.74Zm0-30.58v-13.74h13.7v13.74Z"/><path class="cls-9" d="M1362.8,1798.38a21.14,21.14,0,0,1,1.68-8.62,20.19,20.19,0,0,1,4.5-6.47,19.51,19.51,0,0,1,6.52-4.11,21.84,21.84,0,0,1,15.44,0,19.56,19.56,0,0,1,6.51,4.11,20.19,20.19,0,0,1,4.5,6.47,21,21,0,0,1,1.68,8.62v56.32a21,21,0,0,1-1.68,8.62,20.19,20.19,0,0,1-4.5,6.47,19.56,19.56,0,0,1-6.51,4.11,21.84,21.84,0,0,1-15.44,0,19.51,19.51,0,0,1-6.52-4.11,20.19,20.19,0,0,1-4.5-6.47,21.18,21.18,0,0,1-1.68-8.62Zm13.7,56.32a6.81,6.81,0,0,0,1.88,4.91,6.94,6.94,0,0,0,9.67,0,6.77,6.77,0,0,0,1.88-4.91v-56.32a6.79,6.79,0,0,0-1.88-4.92,7,7,0,0,0-9.67,0,6.83,6.83,0,0,0-1.88,4.92Z"/><path class="cls-9" d="M1412.76,1798.38a21,21,0,0,1,1.68-8.62,20.19,20.19,0,0,1,4.5-6.47,19.51,19.51,0,0,1,6.52-4.11,21.84,21.84,0,0,1,15.44,0,19.56,19.56,0,0,1,6.51,4.11,20.19,20.19,0,0,1,4.5,6.47,21,21,0,0,1,1.68,8.62v56.32a21,21,0,0,1-1.68,8.62,20.19,20.19,0,0,1-4.5,6.47,19.56,19.56,0,0,1-6.51,4.11,21.84,21.84,0,0,1-15.44,0,19.51,19.51,0,0,1-6.52-4.11,20.19,20.19,0,0,1-4.5-6.47,21,21,0,0,1-1.68-8.62Zm13.7,56.32a6.81,6.81,0,0,0,1.88,4.91,6.94,6.94,0,0,0,9.67,0,6.77,6.77,0,0,0,1.88-4.91v-56.32a6.79,6.79,0,0,0-1.88-4.92,7,7,0,0,0-9.67,0,6.83,6.83,0,0,0-1.88,4.92Z"/><path class="cls-9" d="M1514.7,1874.5v-7h-.27a25.55,25.55,0,0,1-5.44,5.79q-2.76,2-7.72,2a17.26,17.26,0,0,1-4.91-.74,12.6,12.6,0,0,1-4.76-2.76,13.14,13.14,0,0,1-3.7-5.46,25.66,25.66,0,0,1-1.41-9.23,49.33,49.33,0,0,1,.94-10.17,16.17,16.17,0,0,1,3.5-7.34,14.6,14.6,0,0,1,6.58-4.25,33.59,33.59,0,0,1,10.61-1.41h1.47a7.55,7.55,0,0,1,1.48.13,8.24,8.24,0,0,0,1.61.14,16.25,16.25,0,0,1,2,.13v-7.14a10.54,10.54,0,0,0-1.48-5.79q-1.48-2.3-5.37-2.29a7.69,7.69,0,0,0-4.9,1.75,8.29,8.29,0,0,0-2.89,5.12h-13.3q.54-9.16,6.18-14.82a19.31,19.31,0,0,1,6.45-4.24,21.84,21.84,0,0,1,8.46-1.55,23.71,23.71,0,0,1,8.06,1.34,18.4,18.4,0,0,1,6.57,4,19.52,19.52,0,0,1,4.3,6.73,25.27,25.27,0,0,1,1.62,9.43v47.56Zm0-29.37a22.41,22.41,0,0,0-3.76-.4,13.36,13.36,0,0,0-7.59,2.09q-3.16,2.09-3.16,7.61a10.07,10.07,0,0,0,1.88,6.33,6.24,6.24,0,0,0,5.24,2.42,6.77,6.77,0,0,0,5.44-2.28,9.71,9.71,0,0,0,2-6.47Z"/><path class="cls-9" d="M1538.47,1874.5v-68.31h13.7v6.61h.26a19.58,19.58,0,0,1,5.17-5.32,13.24,13.24,0,0,1,7.72-2.09,12.18,12.18,0,0,1,7.39,2.15,22,22,0,0,1,4.84,4.72,28.42,28.42,0,0,1,5.64-4.85q3.09-2,8.59-2a16.92,16.92,0,0,1,5.24.87,12.91,12.91,0,0,1,4.84,2.9,15.28,15.28,0,0,1,3.49,5.18,20,20,0,0,1,1.34,7.75v52.41H1593v-47.29a9.21,9.21,0,0,0-1.74-5.93,6.05,6.05,0,0,0-5-2.15q-3.9,0-5.38,2.42a13.65,13.65,0,0,0-1.47,7v45.94h-13.7v-47.29a9.15,9.15,0,0,0-1.75-5.93,6,6,0,0,0-5-2.15q-3.9,0-5.38,2.42a13.65,13.65,0,0,0-1.47,7v45.94Z"/><path class="cls-9" d="M1778.34,1798.38a21,21,0,0,1,1.68-8.62,20.19,20.19,0,0,1,4.5-6.47,19.56,19.56,0,0,1,6.51-4.11,21.87,21.87,0,0,1,15.45,0,19.56,19.56,0,0,1,6.51,4.11,20.19,20.19,0,0,1,4.5,6.47,21,21,0,0,1,1.68,8.62v56.32a21,21,0,0,1-1.68,8.62,20.19,20.19,0,0,1-4.5,6.47,19.56,19.56,0,0,1-6.51,4.11,21.87,21.87,0,0,1-15.45,0,19.56,19.56,0,0,1-6.51-4.11,20.19,20.19,0,0,1-4.5-6.47,21,21,0,0,1-1.68-8.62Zm13.7,56.32a6.81,6.81,0,0,0,1.88,4.91,6.94,6.94,0,0,0,9.67,0,6.81,6.81,0,0,0,1.88-4.91v-56.32a6.83,6.83,0,0,0-1.88-4.92,7,7,0,0,0-9.67,0,6.83,6.83,0,0,0-1.88,4.92Z"/><path class="cls-9" d="M1829.38,1874.5v-13.74h13.7v13.74Zm0-30.58v-13.74h13.7v13.74Z"/><path class="cls-9" d="M1853.28,1798.38a21,21,0,0,1,1.68-8.62,20.19,20.19,0,0,1,4.5-6.47,19.56,19.56,0,0,1,6.51-4.11,21.87,21.87,0,0,1,15.45,0,19.56,19.56,0,0,1,6.51,4.11,20.19,20.19,0,0,1,4.5,6.47,21,21,0,0,1,1.68,8.62v56.32a21,21,0,0,1-1.68,8.62,20.19,20.19,0,0,1-4.5,6.47,19.56,19.56,0,0,1-6.51,4.11,21.87,21.87,0,0,1-15.45,0,19.56,19.56,0,0,1-6.51-4.11,20.19,20.19,0,0,1-4.5-6.47,21,21,0,0,1-1.68-8.62Zm13.7,56.32a6.81,6.81,0,0,0,1.88,4.91,6.94,6.94,0,0,0,9.67,0,6.81,6.81,0,0,0,1.88-4.91v-56.32a6.83,6.83,0,0,0-1.88-4.92,7,7,0,0,0-9.67,0,6.83,6.83,0,0,0-1.88,4.92Z"/><path class="cls-9" d="M1903.24,1798.38a21,21,0,0,1,1.68-8.62,20.19,20.19,0,0,1,4.5-6.47,19.56,19.56,0,0,1,6.51-4.11,21.87,21.87,0,0,1,15.45,0,19.56,19.56,0,0,1,6.51,4.11,20.19,20.19,0,0,1,4.5,6.47,21,21,0,0,1,1.68,8.62v56.32a21,21,0,0,1-1.68,8.62,20.19,20.19,0,0,1-4.5,6.47,19.56,19.56,0,0,1-6.51,4.11,21.87,21.87,0,0,1-15.45,0,19.56,19.56,0,0,1-6.51-4.11,20.19,20.19,0,0,1-4.5-6.47,21,21,0,0,1-1.68-8.62Zm13.7,56.32a6.81,6.81,0,0,0,1.88,4.91,6.94,6.94,0,0,0,9.67,0,6.81,6.81,0,0,0,1.88-4.91v-56.32a6.83,6.83,0,0,0-1.88-4.92,7,7,0,0,0-9.67,0,6.83,6.83,0,0,0-1.88,4.92Z"/><path class="cls-9" d="M2005.17,1874.5v-7h-.27a25.53,25.53,0,0,1-5.43,5.79q-2.76,2-7.73,2a17.24,17.24,0,0,1-4.9-.74,12.64,12.64,0,0,1-4.77-2.76,13.22,13.22,0,0,1-3.69-5.46,25.44,25.44,0,0,1-1.41-9.23,48.64,48.64,0,0,1,.94-10.17,16.26,16.26,0,0,1,3.49-7.34,14.65,14.65,0,0,1,6.58-4.25,33.68,33.68,0,0,1,10.61-1.41h1.48a7.55,7.55,0,0,1,1.48.13,8.17,8.17,0,0,0,1.61.14,16.09,16.09,0,0,1,2,.13v-7.14a10.46,10.46,0,0,0-1.48-5.79q-1.47-2.3-5.37-2.29a7.71,7.71,0,0,0-4.9,1.75,8.34,8.34,0,0,0-2.89,5.12h-13.29q.54-9.16,6.18-14.82a19.36,19.36,0,0,1,6.44-4.24,21.91,21.91,0,0,1,8.46-1.55,23.67,23.67,0,0,1,8.06,1.34,18.35,18.35,0,0,1,6.58,4,19.66,19.66,0,0,1,4.3,6.73,25.48,25.48,0,0,1,1.61,9.43v47.56Zm0-29.37a22.2,22.2,0,0,0-3.76-.4,13.35,13.35,0,0,0-7.58,2.09q-3.16,2.09-3.16,7.61a10,10,0,0,0,1.88,6.33,6.24,6.24,0,0,0,5.24,2.42,6.78,6.78,0,0,0,5.44-2.28,9.76,9.76,0,0,0,1.94-6.47Z"/><path class="cls-9" d="M2028.94,1874.5v-68.31h13.7v6.61h.27a19.43,19.43,0,0,1,5.17-5.32,13.22,13.22,0,0,1,7.72-2.09,12.18,12.18,0,0,1,7.39,2.15,21.93,21.93,0,0,1,4.83,4.72,29,29,0,0,1,5.64-4.85q3.09-2,8.6-2a17,17,0,0,1,5.24.87,12.8,12.8,0,0,1,4.83,2.9,15,15,0,0,1,3.49,5.18,19.81,19.81,0,0,1,1.35,7.75v52.41h-13.7v-47.29a9.15,9.15,0,0,0-1.75-5.93,6,6,0,0,0-5-2.15c-2.59,0-4.39.81-5.37,2.42a13.65,13.65,0,0,0-1.48,7v45.94h-13.69v-47.29a9.21,9.21,0,0,0-1.75-5.93,6,6,0,0,0-5-2.15q-3.9,0-5.37,2.42c-1,1.62-1.48,4-1.48,7v45.94Z"/><path class="cls-9" d="M1287.87,2001.36a21,21,0,0,1,1.68-8.62,20.12,20.12,0,0,1,4.49-6.47,19.42,19.42,0,0,1,6.52-4.1,21.7,21.7,0,0,1,15.44,0,19.42,19.42,0,0,1,6.52,4.1,20.12,20.12,0,0,1,4.49,6.47,21,21,0,0,1,1.68,8.62v56.32a21,21,0,0,1-1.68,8.62,20,20,0,0,1-4.49,6.47,19.45,19.45,0,0,1-6.52,4.11,21.84,21.84,0,0,1-15.44,0,19.45,19.45,0,0,1-6.52-4.11,20,20,0,0,1-4.49-6.47,21,21,0,0,1-1.68-8.62Zm13.7,56.32a6.78,6.78,0,0,0,1.88,4.92,7,7,0,0,0,9.66,0,6.78,6.78,0,0,0,1.88-4.92v-56.32a6.77,6.77,0,0,0-1.88-4.91,6.93,6.93,0,0,0-9.66,0,6.77,6.77,0,0,0-1.88,4.91Z"/><path class="cls-9" d="M1338.9,2077.49v-13.75h13.7v13.75Zm0-30.59v-13.74h13.7v13.74Z"/><path class="cls-9" d="M1362.8,2001.36a21.14,21.14,0,0,1,1.68-8.62,20.3,20.3,0,0,1,4.5-6.47,19.32,19.32,0,0,1,6.52-4.1,21.7,21.7,0,0,1,15.44,0,19.38,19.38,0,0,1,6.51,4.1,20.3,20.3,0,0,1,4.5,6.47,21,21,0,0,1,1.68,8.62v56.32a21,21,0,0,1-1.68,8.62,20.19,20.19,0,0,1-4.5,6.47,19.4,19.4,0,0,1-6.51,4.11,21.84,21.84,0,0,1-15.44,0,19.35,19.35,0,0,1-6.52-4.11,20.19,20.19,0,0,1-4.5-6.47,21.14,21.14,0,0,1-1.68-8.62Zm13.7,56.32a6.82,6.82,0,0,0,1.88,4.92,7,7,0,0,0,9.67,0,6.78,6.78,0,0,0,1.88-4.92v-56.32a6.77,6.77,0,0,0-1.88-4.91,6.94,6.94,0,0,0-9.67,0,6.81,6.81,0,0,0-1.88,4.91Z"/><path class="cls-9" d="M1412.76,2001.36a21,21,0,0,1,1.68-8.62,20.3,20.3,0,0,1,4.5-6.47,19.32,19.32,0,0,1,6.52-4.1,21.7,21.7,0,0,1,15.44,0,19.38,19.38,0,0,1,6.51,4.1,20.3,20.3,0,0,1,4.5,6.47,21,21,0,0,1,1.68,8.62v56.32a21,21,0,0,1-1.68,8.62,20.19,20.19,0,0,1-4.5,6.47,19.4,19.4,0,0,1-6.51,4.11,21.84,21.84,0,0,1-15.44,0,19.35,19.35,0,0,1-6.52-4.11,20.19,20.19,0,0,1-4.5-6.47,21,21,0,0,1-1.68-8.62Zm13.7,56.32a6.82,6.82,0,0,0,1.88,4.92,7,7,0,0,0,9.67,0,6.78,6.78,0,0,0,1.88-4.92v-56.32a6.77,6.77,0,0,0-1.88-4.91,6.94,6.94,0,0,0-9.67,0,6.81,6.81,0,0,0-1.88,4.91Z"/><path class="cls-9" d="M1514.7,2077.49v-7h-.27a25.14,25.14,0,0,1-5.44,5.79q-2.76,2-7.72,2a16.91,16.91,0,0,1-4.91-.74,12.6,12.6,0,0,1-4.76-2.76,13.1,13.1,0,0,1-3.7-5.45,25.76,25.76,0,0,1-1.41-9.24,49.33,49.33,0,0,1,.94-10.17,16.27,16.27,0,0,1,3.5-7.34,14.5,14.5,0,0,1,6.58-4.24,33.27,33.27,0,0,1,10.61-1.42h1.47a7.52,7.52,0,0,1,1.48.14,8.31,8.31,0,0,0,1.61.13,16.35,16.35,0,0,1,2,.14v-7.15a10.54,10.54,0,0,0-1.48-5.79c-1-1.52-2.78-2.29-5.37-2.29a7.74,7.74,0,0,0-4.9,1.75,8.29,8.29,0,0,0-2.89,5.12h-13.3q.54-9.15,6.18-14.82a19.46,19.46,0,0,1,6.45-4.24,22,22,0,0,1,8.46-1.55,23.72,23.72,0,0,1,8.06,1.35,18.23,18.23,0,0,1,6.57,4,19.56,19.56,0,0,1,4.3,6.74,25.2,25.2,0,0,1,1.62,9.43v47.56Zm0-29.38a23.52,23.52,0,0,0-3.76-.4,13.44,13.44,0,0,0-7.59,2.09q-3.16,2.09-3.16,7.61a10,10,0,0,0,1.88,6.33,6.25,6.25,0,0,0,5.24,2.43,6.74,6.74,0,0,0,5.44-2.29,9.71,9.71,0,0,0,2-6.47Z"/><path class="cls-9" d="M1538.47,2077.49v-68.31h13.7v6.6h.26a19.58,19.58,0,0,1,5.17-5.32,13.32,13.32,0,0,1,7.72-2.09,12.25,12.25,0,0,1,7.39,2.15,22,22,0,0,1,4.84,4.72,28.75,28.75,0,0,1,5.64-4.85q3.09-2,8.59-2a16.65,16.65,0,0,1,5.24.88,12.76,12.76,0,0,1,4.84,2.89,15.23,15.23,0,0,1,3.49,5.19,19.93,19.93,0,0,1,1.34,7.75v52.41H1593v-47.3a9.16,9.16,0,0,0-1.74-5.92,6,6,0,0,0-5-2.16q-3.9,0-5.38,2.43a13.61,13.61,0,0,0-1.47,7v45.95h-13.7v-47.3a9.1,9.1,0,0,0-1.75-5.92,6,6,0,0,0-5-2.16q-3.9,0-5.38,2.43a13.61,13.61,0,0,0-1.47,7v45.95Z"/><ellipse class="cls-9" cx="2219.74" cy="1710.04" rx="17.75" ry="17.81"/><rect class="cls-9" x="1985.99" y="1588.75" width="535.31" height="27.12"/><ellipse class="cls-10" cx="560.21" cy="1506.18" rx="540.5" ry="806.07"/><ellipse class="cls-10" cx="1839.77" cy="571.06" rx="507.66" ry="737.97"/><path class="cls-11" d="M1836.12-191.51c245.18,0,437.62,268.7,444.24,714,6.29,423.83-199.06,714-444.24,714-37.76,0-175.76-.91-175.76-.91s-268.49-379.69-268.49-713.06c0-367.12,291.16-712.71,291.16-712.71S1819.36-191.51,1836.12-191.51Z"/><path class="cls-12" d="M1836.12-191.51c245.18,0,437.62,268.7,444.24,714,6.29,423.83-199.06,714-444.24,714-37.76,0-175.76-.91-175.76-.91s-268.49-379.69-268.49-713.06c0-367.12,291.16-712.71,291.16-712.71S1819.36-191.51,1836.12-191.51Z"/><path class="cls-13" d="M1685.47-191.51c245.18,0,437.63,268.7,444.24,714,6.29,423.83-199.06,714-444.24,714s-444.25-319.92-444.25-714S1440.28-191.51,1685.47-191.51Z"/><ellipse class="cls-14" cx="1674.79" cy="523.42" rx="419.1" ry="698.01"/><ellipse class="cls-15" cx="1716.22" cy="521.15" rx="392.84" ry="698.47"/><path class="cls-14" d="M1736,1034.05l-18,47.15.31.31a6.21,6.21,0,0,1,2.41-1,18.82,18.82,0,0,1,4.26-.39,15.36,15.36,0,0,1,7.78,2.05,15.87,15.87,0,0,1,5.59,5.21,18.2,18.2,0,0,1,1.71,3.46,27.68,27.68,0,0,1,1.08,4.57c.21,1.9.36,4.29.47,7.18s.15,6.54.15,11c0,3.67,0,6.7-.15,9.06s-.26,4.34-.47,5.91a22.16,22.16,0,0,1-1.16,4.27,31.79,31.79,0,0,1-1.79,3.62,21.6,21.6,0,0,1-8.31,8,24.09,24.09,0,0,1-11.73,2.84,23.29,23.29,0,0,1-11.65-2.91,22.78,22.78,0,0,1-8.23-8,21.57,21.57,0,0,1-1.94-3.62,17.05,17.05,0,0,1-1-4.27,40.1,40.1,0,0,1-.61-5.91c-.1-2.36-.16-5.39-.16-9.06,0-3.47.06-6.34.16-8.59s.25-4.24.46-5.92a25.48,25.48,0,0,1,.94-4.34c.41-1.31.87-2.7,1.39-4.18l20.82-56.44Zm-10.1,68.27a7.77,7.77,0,1,0-15.53,0v20.81a7.77,7.77,0,1,0,15.53,0Zm156.68-40.71,10.76-12.34L1870,988.7l-5.78,5.32ZM1539,1050.24l11.39,10.4,17.86-66.11-5.48-6.24Zm471.65-208.06,5.85-20.26-37.18-31.76-3.5,9.74Zm-595.07-19.69,7,19.13,34.06-41.37-3-10.27Zm-16.13-235.23,18-47.14-.31-.31a6.14,6.14,0,0,1-2.41,1,18.34,18.34,0,0,1-4.27.4,15.4,15.4,0,0,1-7.77-2.05,15.88,15.88,0,0,1-5.59-5.21,14.2,14.2,0,0,1-1.71-3.39,22.45,22.45,0,0,1-.93-4.65,57.9,57.9,0,0,1-.62-7.17c-.1-2.9-.16-6.54-.16-11,0-3.68.06-6.7.16-9.07a44.4,44.4,0,0,1,.62-6.07,17,17,0,0,1,1-4.1,28.14,28.14,0,0,1,1.79-3.62,21.55,21.55,0,0,1,8.31-8.05,24.09,24.09,0,0,1,11.73-2.83,23,23,0,0,1,11.64,2.91,22.73,22.73,0,0,1,8.24,8,40.36,40.36,0,0,1,1.86,3.62,19.13,19.13,0,0,1,1.24,4.1c.21,1.68.37,3.71.47,6.07s.16,5.39.16,9.07c0,3.47-.06,6.33-.16,8.59s-.26,4.18-.47,5.76-.64,3.17-1,4.49-.81,2.71-1.33,4.17l-20.81,56.45Zm624.32-68.81q7.14,0,9.87-1.73t2.71-8.05v-14.5a7.87,7.87,0,0,0-2.1-5.68,7.43,7.43,0,0,0-5.67-2.21q-4.18,0-6,2.69a9.45,9.45,0,0,0-1.78,5.2v9.14h-15.85V494a23.73,23.73,0,0,1,1.87-9.3,22.69,22.69,0,0,1,5.13-7.57,25.27,25.27,0,0,1,7.61-5.05,23.06,23.06,0,0,1,9.31-1.89,20.4,20.4,0,0,1,10.8,2.61,24.78,24.78,0,0,1,6.45,5.28,33.35,33.35,0,0,1,2.72,3.78,18.59,18.59,0,0,1,1.94,4.57q1.39,5.21,1.39,15.46,0,5.82-.22,9.46a20.22,20.22,0,0,1-1.17,6,12,12,0,0,1-3,4.25,35.41,35.41,0,0,1-5.36,3.78,31,31,0,0,1,5.68,4.43,12.91,12.91,0,0,1,2.86,4.72,24.68,24.68,0,0,1,1.1,6.71c.1,2.57.14,5.86.14,9.85q0,5.52-.22,9.14a48.72,48.72,0,0,1-.7,6,19.63,19.63,0,0,1-1.24,4.26,26.93,26.93,0,0,1-2,3.63,25.27,25.27,0,0,1-7.55,7.33c-3,1.94-7.06,2.92-12,2.92a27.67,27.67,0,0,1-7.93-1.26,21.9,21.9,0,0,1-7.61-4.1,22.15,22.15,0,0,1-5.66-7.42,25.16,25.16,0,0,1-2.26-11.19v-9.14h15.85v8.35a9.26,9.26,0,0,0,2.09,6.23,7.79,7.79,0,0,0,11.34,0,9.65,9.65,0,0,0,2.1-6.55V543.2q0-6.62-2.48-8.67A6.88,6.88,0,0,0,2030,533a48.57,48.57,0,0,0-6.29-.32Zm-614.22.55a7.77,7.77,0,1,0,15.53,0V498.18a7.77,7.77,0,1,0-15.53,0ZM2017,231.31l-6.94-19.12L1976,253.55l3,10.27ZM1422,211.63l-5.85,20.25,37.18,31.76,3.51-9.74ZM1893.61,3.56,1882.22-6.83l-17.87,66.1,5.48,6.24ZM1550-7.81,1539.28,4.54l23.26,60.55,5.78-5.31ZM1681.78,15.3V-79.94l-15.84,11.83v-17L1681.78-97h15.84V15.3Zm39,0V.16l28.59-54.71a20.32,20.32,0,0,0,2.49-7.18q.32-3.08.31-7.64c0-1.37,0-2.82-.08-4.34a10.42,10.42,0,0,0-.86-4,7.42,7.42,0,0,0-2.33-2.92,7.28,7.28,0,0,0-4.49-1.18,7.72,7.72,0,0,0-5.67,2c-1.41,1.37-2.1,3.36-2.1,6v9.15h-15.86v-8.83a23.91,23.91,0,0,1,1.88-9.46,24.26,24.26,0,0,1,5.12-7.73,23.22,23.22,0,0,1,7.45-5.28,22.28,22.28,0,0,1,9.33-2,22.92,22.92,0,0,1,10.63,2.28,21.33,21.33,0,0,1,7.39,6.23,27.47,27.47,0,0,1,4.11,9A42.2,42.2,0,0,1,1768-69.69c0,2.73-.06,5-.16,6.86a41.49,41.49,0,0,1-.62,5.28,23.84,23.84,0,0,1-1.56,5q-1.08,2.52-3,6.15L1739.41-.79H1768V15.3Z"/><path class="cls-16" d="M1726.12,1034.05l-18,47.15.31.31a6.36,6.36,0,0,1,2.41-1,18.92,18.92,0,0,1,4.27-.39,15.35,15.35,0,0,1,7.77,2.05,15.7,15.7,0,0,1,5.59,5.21,17.09,17.09,0,0,1,1.71,3.46,27.56,27.56,0,0,1,1.09,4.57c.21,1.9.36,4.29.47,7.18s.14,6.54.14,11c0,3.67,0,6.7-.14,9.06s-.26,4.34-.47,5.91a22.11,22.11,0,0,1-1.17,4.27,28.77,28.77,0,0,1-1.79,3.62,21.53,21.53,0,0,1-8.31,8,24.09,24.09,0,0,1-11.73,2.84,23.29,23.29,0,0,1-11.65-2.91,22.86,22.86,0,0,1-8.23-8,22.32,22.32,0,0,1-1.94-3.62,17.08,17.08,0,0,1-1-4.27,39.94,39.94,0,0,1-.62-5.91c-.1-2.36-.16-5.39-.16-9.06,0-3.47.06-6.34.16-8.59s.26-4.24.47-5.92a26.5,26.5,0,0,1,.93-4.34c.41-1.31.88-2.7,1.4-4.18l20.81-56.44Zm-10.1,68.27a7.77,7.77,0,1,0-15.53,0v20.81a7.77,7.77,0,1,0,15.53,0Zm156.69-40.71,10.76-12.34L1860.2,988.7l-5.78,5.32Zm-343.57-11.37,11.39,10.4,17.87-66.11-5.48-6.24ZM2000.8,842.18l5.85-20.26-37.19-31.76-3.5,9.74Zm-595.07-19.69,6.94,19.13,34.06-41.37-3-10.27ZM1389.6,587.26l18-47.14-.31-.31a6.09,6.09,0,0,1-2.4,1,18.37,18.37,0,0,1-4.28.4,15.39,15.39,0,0,1-7.76-2.05,15.91,15.91,0,0,1-5.6-5.21,13.81,13.81,0,0,1-1.7-3.39,21.75,21.75,0,0,1-.94-4.65,59.92,59.92,0,0,1-.62-7.17c-.1-2.9-.15-6.54-.15-11q0-5.52.15-9.07a46,46,0,0,1,.62-6.07,17.44,17.44,0,0,1,1-4.1,29.51,29.51,0,0,1,1.79-3.62,21.55,21.55,0,0,1,8.31-8.05,24.12,24.12,0,0,1,11.73-2.83,23.08,23.08,0,0,1,11.65,2.91,22.7,22.7,0,0,1,8.23,8,38.08,38.08,0,0,1,1.87,3.62,19.71,19.71,0,0,1,1.24,4.1c.21,1.68.36,3.71.47,6.07s.15,5.39.15,9.07q0,5.2-.15,8.59c-.11,2.27-.26,4.18-.47,5.76s-.65,3.17-1,4.49-.8,2.71-1.32,4.17l-20.82,56.45Zm624.31-68.81c4.77,0,8-.58,9.87-1.73s2.72-3.84,2.72-8.05v-14.5a7.91,7.91,0,0,0-2.1-5.68,7.43,7.43,0,0,0-5.67-2.21q-4.2,0-6,2.69a9.38,9.38,0,0,0-1.78,5.2v9.14h-15.85V494a23.55,23.55,0,0,1,1.87-9.3,22.52,22.52,0,0,1,5.12-7.57,25.4,25.4,0,0,1,7.61-5.05,23.11,23.11,0,0,1,9.32-1.89,20.36,20.36,0,0,1,10.79,2.61,24.44,24.44,0,0,1,6.45,5.28,34.78,34.78,0,0,1,2.73,3.78,19,19,0,0,1,1.94,4.57q1.38,5.21,1.39,15.46,0,5.82-.23,9.46a20.57,20.57,0,0,1-1.16,6,12,12,0,0,1-3,4.25,34.75,34.75,0,0,1-5.35,3.78,30.5,30.5,0,0,1,5.67,4.43,12.93,12.93,0,0,1,2.87,4.72,25.09,25.09,0,0,1,1.09,6.71c.1,2.57.15,5.86.15,9.85q0,5.52-.23,9.14a48.72,48.72,0,0,1-.7,6,18.57,18.57,0,0,1-1.24,4.26,25.88,25.88,0,0,1-2,3.63,25.35,25.35,0,0,1-7.54,7.33c-3,1.94-7.07,2.92-12,2.92a27.57,27.57,0,0,1-7.93-1.26A21.72,21.72,0,0,1,2003,579a22.3,22.3,0,0,1-5.67-7.42,25.16,25.16,0,0,1-2.25-11.19v-9.14H2011v8.35a9.2,9.2,0,0,0,2.09,6.23,7.79,7.79,0,0,0,11.34,0,9.7,9.7,0,0,0,2.1-6.55V543.2c0-4.41-.84-7.3-2.49-8.67a6.85,6.85,0,0,0-3.81-1.57,48.36,48.36,0,0,0-6.29-.32Zm-614.22.55a7.77,7.77,0,1,0,15.54,0V498.18a7.78,7.78,0,1,0-15.54,0ZM2007.2,231.31l-7-19.12-34.06,41.36,3,10.27Zm-595.08-19.68-5.84,20.25,37.17,31.76,3.51-9.74ZM1883.78,3.56,1872.39-6.83l-17.87,66.1,5.48,6.24ZM1540.21-7.81,1529.46,4.54l23.26,60.55,5.78-5.31ZM1672,15.3V-79.94l-15.84,11.83v-17L1672-97h15.85V15.3Zm39,0V.16l28.59-54.71a20.28,20.28,0,0,0,2.48-7.18q.32-3.08.31-7.64c0-1.37,0-2.82-.08-4.34a10.61,10.61,0,0,0-.85-4,7.51,7.51,0,0,0-2.33-2.92,7.33,7.33,0,0,0-4.5-1.18,7.72,7.72,0,0,0-5.67,2,8,8,0,0,0-2.1,6v9.15h-15.85v-8.83a24.09,24.09,0,0,1,1.87-9.46,24.42,24.42,0,0,1,5.12-7.73,23.16,23.16,0,0,1,7.46-5.28,22.23,22.23,0,0,1,9.32-2,23,23,0,0,1,10.64,2.28,21.39,21.39,0,0,1,7.38,6.23,27.7,27.7,0,0,1,4.12,9,42.21,42.21,0,0,1,1.32,10.72c0,2.73-.06,5-.16,6.86a41.52,41.52,0,0,1-.61,5.28,23.88,23.88,0,0,1-1.57,5c-.71,1.68-1.7,3.73-2.94,6.15L1729.59-.79h28.58V15.3Z"/><path class="cls-17" d="M1734.6,532.58l211-9.17-4.94,47L1708,550.27l-6.09,5.36-97.46,282.13-13.36-15.62,92.1-278.93L1698.6,523Z"/><path class="cls-18" d="M1717.34,469c15.32,0,27.75,22.12,27.75,49.35s-12.43,49.37-27.75,49.37c-2.45,0-12,.81-14.27-.25-11.9-5.57-13.5-26.22-13.5-49.12,0-21,3.48-41.32,13.91-48.43C1706.56,467.84,1713.84,469,1717.34,469Z"/><ellipse class="cls-19" cx="1704.93" cy="518.37" rx="27.76" ry="49.36"/><path class="cls-20" d="M1677.3,527.58l-114,300.78,19.38,12.37,110.08-300.4Z"/><path class="cls-18" d="M1582.65,840l6.91-1.09L1696,546l-7.12-1.52Z"/><path class="cls-21" d="M1704.93,490.41c8.68,0,15.73,12.53,15.73,28s-7.05,28-15.73,28l-24.88.13s9.15-15.15,9.15-28.1c0-8.5-9.59-27.6-9.59-27.6S1701,490.41,1704.93,490.41Z"/><ellipse class="cls-22" cx="1679.7" cy="518.38" rx="15.73" ry="27.97"/><path class="cls-18" d="M1713.34,534.54s4-13.49-.18-31.6l233.91-1.28L1945.58,535Z"/><path class="cls-20" d="M1704.9,534.54s4-13.49-.18-31.6l233.91-1.28L1937.14,535Z"/><path class="cls-23" d="M2103.11,399.4c3.91,39.56,5.95,80.24,5.95,121.75q0,25.68-1,50.91c-58.3,45.79-116.41,91.8-173.66,138.82-151.42,124.36-299,251.18-445.14,380.25-21.72-27.4-41.81-58.63-60-93.13C1653.68,798.63,1876.11,596.11,2103.11,399.4ZM1863.8-126.28C1949-64.73,2019.39,48.5,2062.58,191.51c-239.33,200-476.07,403.44-705.17,614.18-21.87-86.93-34-183.23-34-284.54a1233.33,1233.33,0,0,1,6.29-125q63.54-59.64,125.9-120.5c89.13-87.19,177.06-175.63,266.05-263Q1792.61-57,1863.8-126.28Z"/><ellipse class="cls-10" cx="4117.5" cy="2329.34" rx="344.91" ry="501.39"/><path class="cls-11" d="M4115,1811.24c166.58,0,297.33,182.56,301.83,485.08,4.27,288-135.25,485.08-301.83,485.08-25.65,0-119.41-.62-119.41-.62s-182.41-258-182.41-484.46c0-249.43,197.82-484.22,197.82-484.22S4103.64,1811.24,4115,1811.24Z"/><path class="cls-12" d="M4115,1811.24c166.58,0,297.33,182.56,301.83,485.08,4.27,288-135.25,485.08-301.83,485.08-25.65,0-119.41-.62-119.41-.62s-182.41-258-182.41-484.46c0-249.43,197.82-484.22,197.82-484.22S4103.64,1811.24,4115,1811.24Z"/><path class="cls-13" d="M4012.67,1811.24c166.58,0,297.33,182.56,301.83,485.08,4.27,288-135.25,485.08-301.83,485.08s-301.83-217.35-301.83-485.08S3846.09,1811.24,4012.67,1811.24Z"/><ellipse class="cls-14" cx="4005.41" cy="2296.97" rx="284.74" ry="474.24"/><ellipse class="cls-15" cx="4033.57" cy="2295.43" rx="266.9" ry="474.55"/><path class="cls-14" d="M4047,2643.9l-12.25,32,.21.21a4.21,4.21,0,0,1,1.64-.7,12.62,12.62,0,0,1,2.9-.27,10.42,10.42,0,0,1,5.28,1.39,10.73,10.73,0,0,1,3.8,3.54,12,12,0,0,1,1.16,2.36,18.19,18.19,0,0,1,.74,3.1c.14,1.29.24,2.91.32,4.88s.1,4.44.1,7.45c0,2.49,0,4.55-.1,6.15s-.18,2.95-.32,4a14.63,14.63,0,0,1-.79,2.89,21.61,21.61,0,0,1-1.22,2.47,14.71,14.71,0,0,1-5.64,5.46,16.43,16.43,0,0,1-8,1.93,15.86,15.86,0,0,1-7.92-2,15.42,15.42,0,0,1-5.59-5.41A15,15,0,0,1,4020,2711a11.25,11.25,0,0,1-.69-2.89,27.65,27.65,0,0,1-.42-4c-.07-1.6-.11-3.66-.11-6.15s0-4.31.11-5.84.18-2.88.32-4a16.73,16.73,0,0,1,.64-2.94c.27-.89.59-1.84.94-2.84l14.14-38.35Zm-6.86,46.39a5.28,5.28,0,1,0-10.56,0v14.14a5.28,5.28,0,1,0,10.56,0Zm106.45-27.66,7.31-8.39-15.81-41.15-3.93,3.62Zm-233.43-7.73,7.74,7.06,12.14-44.91-3.72-4.23Zm320.46-141.36,4-13.76-25.26-21.58-2.38,6.62Zm-404.31-13.37,4.72,13,23.14-28.1-2-7Zm-11-159.82,12.25-32-.21-.21a4.38,4.38,0,0,1-1.64.69,12.68,12.68,0,0,1-2.9.27,10.52,10.52,0,0,1-5.28-1.39,10.82,10.82,0,0,1-3.8-3.54,9.38,9.38,0,0,1-1.16-2.3,15.13,15.13,0,0,1-.63-3.16,40,40,0,0,1-.42-4.88q-.11-2.94-.11-7.44,0-3.75.11-6.16a30.41,30.41,0,0,1,.42-4.12,11.75,11.75,0,0,1,.68-2.79,18.67,18.67,0,0,1,1.22-2.46,14.66,14.66,0,0,1,5.64-5.47,16.46,16.46,0,0,1,8-1.93,15.73,15.73,0,0,1,7.92,2,15.53,15.53,0,0,1,5.59,5.42,26.36,26.36,0,0,1,1.27,2.46,13,13,0,0,1,.84,2.79c.14,1.14.25,2.51.32,4.12s.1,3.66.1,6.16,0,4.3-.1,5.84-.18,2.84-.32,3.91-.44,2.16-.68,3-.55,1.84-.9,2.84l-14.14,38.35Zm424.18-46.76q4.84,0,6.7-1.17t1.85-5.47v-9.85a5.38,5.38,0,0,0-1.43-3.86,5.05,5.05,0,0,0-3.85-1.5,4.53,4.53,0,0,0-4.07,1.83,6.41,6.41,0,0,0-1.21,3.53v6.21h-10.77V2277a16,16,0,0,1,1.28-6.32,15.27,15.27,0,0,1,3.48-5.14,17.09,17.09,0,0,1,5.17-3.43,15.64,15.64,0,0,1,6.33-1.28,13.84,13.84,0,0,1,7.33,1.77,16.68,16.68,0,0,1,4.38,3.58,21.69,21.69,0,0,1,1.85,2.57,12.6,12.6,0,0,1,1.32,3.11,43.43,43.43,0,0,1,1,10.5q0,4-.16,6.43a13.52,13.52,0,0,1-.79,4.07,8.16,8.16,0,0,1-2.06,2.89,24.84,24.84,0,0,1-3.64,2.57,20.76,20.76,0,0,1,3.86,3,8.67,8.67,0,0,1,1.94,3.21,17,17,0,0,1,.75,4.56q.1,2.63.1,6.69,0,3.75-.16,6.21a31.74,31.74,0,0,1-.47,4.07,13.47,13.47,0,0,1-.84,2.9,18.28,18.28,0,0,1-1.38,2.46,17.25,17.25,0,0,1-5.12,5,15,15,0,0,1-8.17,2,18.81,18.81,0,0,1-5.39-.86,14.61,14.61,0,0,1-5.17-2.79,15,15,0,0,1-3.85-5,17,17,0,0,1-1.54-7.6v-6.21h10.77v5.68a6.32,6.32,0,0,0,1.42,4.23,5.31,5.31,0,0,0,7.71,0,6.61,6.61,0,0,0,1.43-4.45v-10.93c0-3-.57-5-1.69-5.89a4.76,4.76,0,0,0-2.59-1.07,34.94,34.94,0,0,0-4.27-.21Zm-417.31.38a5.28,5.28,0,1,0,10.55,0v-14.14a5.26,5.26,0,0,0-5.28-5.47,5.26,5.26,0,0,0-5.27,5.47Zm412.74-195.46-4.72-13-23.14,28.1,2,7Zm-404.3-13.37-4,13.76,25.26,21.58,2.38-6.62Zm320.45-141.37-7.74-7.06-12.14,44.91,3.73,4.24Zm-233.42-7.72-7.31,8.38,15.8,41.15,3.93-3.61Zm89.5,15.7V1887l-10.76,8v-11.57l10.76-8h10.77v76.28Zm26.49,0v-10.29l19.42-37.17a13.62,13.62,0,0,0,1.69-4.87,50.6,50.6,0,0,0,.21-5.2c0-.93,0-1.91,0-3a7,7,0,0,0-.58-2.73,5.13,5.13,0,0,0-1.58-2,5,5,0,0,0-3.06-.8,5.24,5.24,0,0,0-3.85,1.39,5.4,5.4,0,0,0-1.43,4.07v6.21h-10.77v-6a16.42,16.42,0,0,1,1.27-6.42,16.65,16.65,0,0,1,3.48-5.25,15.81,15.81,0,0,1,5.07-3.59,15.2,15.2,0,0,1,6.33-1.34,15.65,15.65,0,0,1,7.23,1.55,14.46,14.46,0,0,1,5,4.23,18.66,18.66,0,0,1,2.8,6.11,28.61,28.61,0,0,1,.9,7.29c0,1.85,0,3.41-.11,4.66a26.79,26.79,0,0,1-.42,3.58,15.39,15.39,0,0,1-1.06,3.43c-.48,1.14-1.15,2.54-2,4.18l-15.83,31h19.42v10.93Z"/><path class="cls-16" d="M4040.29,2643.9l-12.24,32,.21.21a4.16,4.16,0,0,1,1.63-.7,12.68,12.68,0,0,1,2.9-.27,10.42,10.42,0,0,1,5.28,1.39,10.73,10.73,0,0,1,3.8,3.54,12,12,0,0,1,1.17,2.36,19.33,19.33,0,0,1,.73,3.1c.15,1.29.25,2.91.32,4.88s.1,4.44.1,7.45c0,2.49,0,4.55-.1,6.15s-.17,2.95-.32,4a14.63,14.63,0,0,1-.79,2.89,21.45,21.45,0,0,1-1.21,2.47,14.73,14.73,0,0,1-5.65,5.46,16.43,16.43,0,0,1-8,1.93,15.89,15.89,0,0,1-7.92-2,15.58,15.58,0,0,1-5.59-5.41,15,15,0,0,1-1.32-2.47,11.71,11.71,0,0,1-.68-2.89,26.32,26.32,0,0,1-.42-4c-.07-1.6-.11-3.66-.11-6.15s0-4.31.11-5.84.17-2.88.31-4a18.75,18.75,0,0,1,.64-2.94c.28-.89.59-1.84.95-2.84l14.14-38.35Zm-6.86,46.39a5.26,5.26,0,0,0-5.28-5.46,5.26,5.26,0,0,0-5.27,5.46v14.14a5.28,5.28,0,1,0,10.55,0Zm106.45-27.66,7.31-8.39-15.8-41.15-3.93,3.62Zm-233.42-7.73,7.74,7.06,12.14-44.91-3.73-4.23Zm320.45-141.36,4-13.76-25.26-21.58-2.38,6.62Zm-404.3-13.37,4.72,13,23.14-28.1-2-7Zm-11-159.82,12.24-32-.21-.21a4.32,4.32,0,0,1-1.63.69,12.72,12.72,0,0,1-2.91.27,10.46,10.46,0,0,1-5.27-1.39,10.73,10.73,0,0,1-3.8-3.54,9,9,0,0,1-1.16-2.3,14.45,14.45,0,0,1-.64-3.16,40,40,0,0,1-.42-4.88q-.1-2.94-.11-7.44,0-3.75.11-6.16a30.41,30.41,0,0,1,.42-4.12,11.27,11.27,0,0,1,.69-2.79,19.87,19.87,0,0,1,1.21-2.46,14.69,14.69,0,0,1,5.65-5.47,16.43,16.43,0,0,1,8-1.93,15.72,15.72,0,0,1,7.91,2,15.55,15.55,0,0,1,5.6,5.42,26.17,26.17,0,0,1,1.26,2.46,13,13,0,0,1,.85,2.79c.14,1.14.24,2.51.31,4.12s.11,3.66.11,6.16,0,4.3-.11,5.84-.17,2.84-.31,3.91-.44,2.16-.69,3-.54,1.84-.9,2.84l-14.14,38.35Zm424.17-46.76c3.24,0,5.47-.39,6.71-1.17s1.84-2.61,1.84-5.47v-9.85a5.34,5.34,0,0,0-1.43-3.86,5,5,0,0,0-3.85-1.5,4.5,4.5,0,0,0-4.06,1.83,6.33,6.33,0,0,0-1.21,3.53v6.21h-10.77V2277a16.18,16.18,0,0,1,1.27-6.32,15.42,15.42,0,0,1,3.48-5.14,17.34,17.34,0,0,1,5.17-3.43,15.64,15.64,0,0,1,6.33-1.28,13.9,13.9,0,0,1,7.34,1.77,16.68,16.68,0,0,1,4.38,3.58,24.24,24.24,0,0,1,1.85,2.57,12.6,12.6,0,0,1,1.32,3.11,43.53,43.53,0,0,1,.94,10.5q0,4-.15,6.43a13.84,13.84,0,0,1-.79,4.07,8.42,8.42,0,0,1-2.06,2.89,24.84,24.84,0,0,1-3.64,2.57,20.65,20.65,0,0,1,3.85,3,8.83,8.83,0,0,1,1.95,3.21,17,17,0,0,1,.74,4.56q.11,2.63.1,6.69,0,3.75-.15,6.21a33.4,33.4,0,0,1-.48,4.07,12.92,12.92,0,0,1-.84,2.9,17.15,17.15,0,0,1-6.5,7.44,15,15,0,0,1-8.17,2,18.81,18.81,0,0,1-5.39-.86,14.69,14.69,0,0,1-5.17-2.79,15,15,0,0,1-3.85-5,17,17,0,0,1-1.53-7.6v-6.21h10.77v5.68a6.27,6.27,0,0,0,1.42,4.23,5.29,5.29,0,0,0,7.7,0,6.56,6.56,0,0,0,1.43-4.45v-10.93c0-3-.57-5-1.69-5.89a4.69,4.69,0,0,0-2.59-1.07,34.83,34.83,0,0,0-4.27-.21Zm-417.31.38a5.28,5.28,0,1,0,10.55,0v-14.14a5.28,5.28,0,1,0-10.55,0Zm412.75-195.46-4.72-13-23.14,28.1,2,7ZM3827,2085.14l-4,13.76,25.26,21.58,2.38-6.62Zm320.46-141.37-7.74-7.06-12.14,44.91,3.72,4.24ZM3914,1936.05l-7.31,8.38,15.81,41.15,3.92-3.61Zm89.51,15.7V1887l-10.76,8v-11.57l10.76-8h10.76v76.28Zm26.49,0v-10.29l19.42-37.17a13.82,13.82,0,0,0,1.69-4.87c.14-1.4.21-3.13.21-5.2,0-.93,0-1.91-.06-3a7,7,0,0,0-.58-2.73,5.13,5.13,0,0,0-1.58-2,4.94,4.94,0,0,0-3.06-.8,5.26,5.26,0,0,0-3.85,1.39,5.44,5.44,0,0,0-1.43,4.07v6.21H4030v-6a16.24,16.24,0,0,1,1.27-6.42,16.48,16.48,0,0,1,3.48-5.25,15.66,15.66,0,0,1,5.06-3.59,15.24,15.24,0,0,1,6.34-1.34,15.61,15.61,0,0,1,7.22,1.55,14.59,14.59,0,0,1,5,4.23,18.87,18.87,0,0,1,2.8,6.11,29.06,29.06,0,0,1,.9,7.29c0,1.85,0,3.41-.11,4.66a28.54,28.54,0,0,1-.42,3.58,16.51,16.51,0,0,1-1.06,3.43c-.49,1.14-1.16,2.54-2,4.18l-15.84,31h19.43v10.93Z"/><path class="cls-17" d="M4046.05,2303.2,4189.4,2297l-3.36,31.93-158-13.68-4.14,3.65-66.22,191.68-9.07-10.61,62.57-189.51,10.44-13.73Z"/><path class="cls-18" d="M4034.32,2260c10.41,0,18.86,15,18.86,33.53s-8.45,33.54-18.86,33.54c-1.66,0-8.16.56-9.69-.16-8.08-3.79-9.17-17.82-9.17-33.38,0-14.28,2.36-28.07,9.45-32.9C4027,2259.21,4032,2260,4034.32,2260Z"/><ellipse class="cls-19" cx="4025.89" cy="2293.54" rx="18.86" ry="33.53"/><path class="cls-20" d="M4007.12,2299.8l-77.42,204.35,13.17,8.41,74.79-204.1Z"/><path class="cls-18" d="M3942.81,2512.09l4.7-.74,72.35-199-4.85-1Z"/><path class="cls-21" d="M4025.89,2274.55c5.9,0,10.69,8.51,10.69,19s-4.79,19-10.69,19l-16.9.09s6.21-10.3,6.21-19.09c0-5.78-6.51-18.75-6.51-18.75S4023.24,2274.55,4025.89,2274.55Z"/><ellipse class="cls-22" cx="4008.75" cy="2293.55" rx="10.69" ry="19"/><path class="cls-18" d="M4031.61,2304.53s2.74-9.17-.13-21.47l158.92-.87-1,22.61Z"/><path class="cls-20" d="M4025.87,2304.53s2.75-9.17-.12-21.47l158.92-.87-1,22.61Z"/><path class="cls-24" d="M4296.42,2212.71c2.66,26.88,4,54.52,4,82.72q0,17.45-.7,34.59c-39.6,31.11-79.08,62.37-118,94.32-102.88,84.49-203.17,170.65-302.44,258.34a406.51,406.51,0,0,1-40.73-63.27C3991.07,2484,4142.2,2346.36,4296.42,2212.71Zm-162.59-357.15c57.91,41.82,105.71,118.75,135.05,215.91-162.6,135.86-323.45,274.1-479.1,417.28-14.85-59.06-23.11-124.49-23.11-193.32a838.79,838.79,0,0,1,4.27-85q43.17-40.53,85.54-81.87c60.56-59.24,120.3-119.32,180.76-178.66Q4085.47,1902.62,4133.83,1855.56Z"/><ellipse class="cls-10" cx="3427.34" cy="719.73" rx="759.14" ry="1188.74"/><ellipse class="cls-10" cx="161.59" cy="-27.79" rx="349.41" ry="547.14"/><path class="cls-25" d="M3373.83-437.93c377.63,0,674,413.84,684.22,1099.64,9.69,652.78-306.59,1099.65-684.22,1099.65-58.15,0-270.69-1.4-270.69-1.4s-413.52-584.79-413.52-1098.25c0-565.43,448.44-1097.7,448.44-1097.7S3348-437.93,3373.83-437.93Z"/><path class="cls-26" d="M3373.83-437.93c377.63,0,674,413.84,684.22,1099.64,9.69,652.78-306.59,1099.65-684.22,1099.65-58.15,0-270.69-1.4-270.69-1.4s-413.52-584.79-413.52-1098.25c0-565.43,448.44-1097.7,448.44-1097.7S3348-437.93,3373.83-437.93Z"/><path class="cls-27" d="M3141.81-437.93c377.62,0,674,413.84,684.21,1099.64,9.69,652.78-306.59,1099.65-684.21,1099.65s-684.22-492.73-684.22-1099.65S2764.18-437.93,3141.81-437.93Z"/><ellipse class="cls-28" cx="3125.36" cy="663.19" rx="645.48" ry="1075.06"/><ellipse class="cls-29" cx="3189.18" cy="659.7" rx="605.04" ry="1075.77"/><path class="cls-30" d="M3219.56,1449.66l-27.76,72.61.48.48a9.52,9.52,0,0,1,3.71-1.58,29.15,29.15,0,0,1,6.57-.6,23.62,23.62,0,0,1,12,3.15,24.41,24.41,0,0,1,8.61,8,27,27,0,0,1,2.64,5.34,42.46,42.46,0,0,1,1.67,7c.32,2.92.55,6.59.72,11.05s.23,10.07.23,16.88q0,8.49-.23,14c-.17,3.65-.4,6.68-.72,9.11a34.52,34.52,0,0,1-1.79,6.56,45.6,45.6,0,0,1-2.76,5.58,33.15,33.15,0,0,1-12.8,12.38A37,37,0,0,1,3192,1624a35.82,35.82,0,0,1-17.94-4.49,35.09,35.09,0,0,1-12.68-12.27,32.93,32.93,0,0,1-3-5.58,25.78,25.78,0,0,1-1.57-6.56,62.37,62.37,0,0,1-1-9.11c-.15-3.64-.24-8.3-.24-14,0-5.35.09-9.76.24-13.23s.4-6.52.72-9.12a39.52,39.52,0,0,1,1.44-6.67c.63-2,1.35-4.17,2.15-6.44l32.06-86.93ZM3204,1554.8a12,12,0,1,0-23.92,0v32.06a12,12,0,1,0,23.92,0Zm241.33-62.69,16.56-19-35.83-93.28-8.9,8.2Zm-529.16-17.51,17.54,16,27.52-101.81-8.44-9.61Zm726.44-320.47,9-31.19L3594.35,1074l-5.4,15Zm-916.52-30.31,10.69,29.45,52.46-63.71-4.61-15.82Zm-24.85-362.3L2729,688.91l-.48-.48a9.45,9.45,0,0,1-3.71,1.57,28,28,0,0,1-6.58.62,23.74,23.74,0,0,1-12-3.16,24.44,24.44,0,0,1-8.62-8,21.61,21.61,0,0,1-2.63-5.21,34.08,34.08,0,0,1-1.43-7.17,89.85,89.85,0,0,1-1-11c-.16-4.46-.24-10.07-.24-16.88q0-8.49.24-14a68.48,68.48,0,0,1,1-9.35,26,26,0,0,1,1.55-6.32,46.21,46.21,0,0,1,2.75-5.58,33.24,33.24,0,0,1,12.8-12.39,37.16,37.16,0,0,1,18.07-4.37,35.58,35.58,0,0,1,17.94,4.49,35.09,35.09,0,0,1,12.68,12.27,62.05,62.05,0,0,1,2.87,5.58,28.83,28.83,0,0,1,1.91,6.32q.48,3.87.72,9.35t.24,14q0,8-.24,13.23t-.72,8.88q-.7,3.87-1.55,6.91c-.56,2-1.24,4.17-2,6.43l-32.06,86.94Zm961.56-106c7.34,0,12.4-.89,15.21-2.66s4.18-5.92,4.18-12.39V618.14a12.17,12.17,0,0,0-3.23-8.75,11.49,11.49,0,0,0-8.74-3.39c-4.31,0-7.37,1.38-9.21,4.13a14.53,14.53,0,0,0-2.74,8v14.08h-24.42V617.9a36.37,36.37,0,0,1,2.89-14.33,34.7,34.7,0,0,1,7.89-11.66,39.31,39.31,0,0,1,11.72-7.78,35.73,35.73,0,0,1,14.35-2.9q10.07,0,16.62,4a37.78,37.78,0,0,1,9.93,8.13,50.87,50.87,0,0,1,4.2,5.83,28.51,28.51,0,0,1,3,7q2.14,8,2.15,23.8c0,6-.13,10.84-.36,14.58a31.11,31.11,0,0,1-1.79,9.22,18.61,18.61,0,0,1-4.67,6.55,55.46,55.46,0,0,1-8.25,5.83,47.17,47.17,0,0,1,8.74,6.81,19.88,19.88,0,0,1,4.41,7.27,38.1,38.1,0,0,1,1.69,10.33q.22,6,.23,15.18c0,5.67-.13,10.36-.36,14.08a73.5,73.5,0,0,1-1.07,9.22,30.27,30.27,0,0,1-1.91,6.57,40.88,40.88,0,0,1-3.11,5.58,39.27,39.27,0,0,1-11.62,11.3c-4.69,3-10.88,4.49-18.53,4.49a42.6,42.6,0,0,1-12.21-1.94,33.43,33.43,0,0,1-11.73-6.32,34.3,34.3,0,0,1-8.72-11.42q-3.47-7-3.48-17.24V706.05h24.42v12.87a14.19,14.19,0,0,0,3.22,9.59,12,12,0,0,0,17.47,0c2.16-2.5,3.23-5.87,3.23-10.08V693.66c0-6.8-1.29-11.25-3.83-13.36a10.58,10.58,0,0,0-5.87-2.41,74.17,74.17,0,0,0-9.69-.5Zm-946,.85a12,12,0,1,0,23.93,0V624.32a12,12,0,1,0-23.93,0Zm935.67-443.09-10.7-29.46-52.46,63.71,4.62,15.82ZM2735.93,183l-9,31.2,57.26,48.92,5.41-15Zm726.45-320.46-17.54-16-27.53,101.8,8.45,9.61ZM2933.22-155l-16.56,19,35.82,93.28,8.9-8.19Zm202.91,35.59V-266.09l-24.4,18.21V-274.1l24.4-18.22h24.39v172.91Zm60,0v-23.32l44-84.26a31,31,0,0,0,3.83-11q.48-4.74.48-11.78c0-2.1-.05-4.33-.13-6.68a16,16,0,0,0-1.31-6.19,11.5,11.5,0,0,0-3.59-4.49c-1.59-1.22-3.91-1.82-6.93-1.82q-5.52,0-8.73,3.15t-3.24,9.23v14.09h-24.41v-13.6a37.14,37.14,0,0,1,2.88-14.57,37.64,37.64,0,0,1,7.89-11.9,35.83,35.83,0,0,1,11.48-8.14,34.51,34.51,0,0,1,14.36-3,35.22,35.22,0,0,1,16.38,3.52,32.71,32.71,0,0,1,11.38,9.59,42.44,42.44,0,0,1,6.34,13.84,65.3,65.3,0,0,1,2,16.52c0,4.2-.09,7.73-.25,10.56a62.85,62.85,0,0,1-1,8.13,37,37,0,0,1-2.4,7.78q-1.67,3.87-4.54,9.47l-35.89,70.18h44v24.77Z"/><path class="cls-31" d="M3204.42,1449.66l-27.75,72.61.48.48a9.47,9.47,0,0,1,3.7-1.58,29.24,29.24,0,0,1,6.58-.6,23.64,23.64,0,0,1,12,3.15,24.41,24.41,0,0,1,8.61,8,27.56,27.56,0,0,1,2.64,5.34,43.49,43.49,0,0,1,1.67,7c.32,2.92.55,6.59.72,11.05s.23,10.07.23,16.88q0,8.49-.23,14c-.17,3.65-.4,6.68-.72,9.11a34.47,34.47,0,0,1-1.8,6.56,45.6,45.6,0,0,1-2.76,5.58,33.05,33.05,0,0,1-12.79,12.38,37.06,37.06,0,0,1-18.07,4.38,35.85,35.85,0,0,1-18-4.49,35.14,35.14,0,0,1-12.67-12.27,33,33,0,0,1-3-5.58,26.24,26.24,0,0,1-1.56-6.56,61,61,0,0,1-.95-9.11c-.15-3.64-.25-8.3-.25-14,0-5.35.1-9.76.25-13.23s.4-6.52.72-9.12a39.52,39.52,0,0,1,1.44-6.67c.63-2,1.35-4.17,2.15-6.44l32.06-86.93Zm-15.55,105.14a12,12,0,1,0-23.92,0v32.06a12,12,0,1,0,23.92,0Zm241.32-62.69,16.57-19-35.83-93.28L3402,1388ZM2901,1474.6l17.55,16,27.52-101.81-8.44-9.61Zm726.44-320.47,9-31.19L3579.21,1074l-5.39,15ZM2711,1123.82l10.7,29.45,52.46-63.71-4.61-15.82Zm-24.84-362.3,27.75-72.61-.48-.48a9.33,9.33,0,0,1-3.7,1.57,28.06,28.06,0,0,1-6.59.62,23.79,23.79,0,0,1-12-3.16,24.32,24.32,0,0,1-8.61-8,21.26,21.26,0,0,1-2.63-5.21,34,34,0,0,1-1.44-7.17,90.11,90.11,0,0,1-.95-11c-.16-4.46-.24-10.07-.24-16.88q0-8.49.24-14a68.64,68.64,0,0,1,.95-9.35,26,26,0,0,1,1.56-6.32,44.77,44.77,0,0,1,2.75-5.58,33.24,33.24,0,0,1,12.8-12.39,37.12,37.12,0,0,1,18.06-4.37,35.62,35.62,0,0,1,18,4.49,35.09,35.09,0,0,1,12.68,12.27q1.66,2.91,2.87,5.58a30,30,0,0,1,1.91,6.32q.48,3.87.72,9.35t.24,14q0,8-.24,13.23t-.72,8.88c-.48,2.58-1,4.88-1.55,6.91s-1.24,4.17-2,6.43l-32.06,86.94Zm961.56-106q11,0,15.2-2.66c2.79-1.78,4.19-5.92,4.19-12.39V618.14a12.18,12.18,0,0,0-3.24-8.75,11.45,11.45,0,0,0-8.73-3.39c-4.31,0-7.37,1.38-9.21,4.13a14.47,14.47,0,0,0-2.75,8v14.08h-24.41V617.9a36.53,36.53,0,0,1,2.88-14.33,35,35,0,0,1,7.89-11.66,39.36,39.36,0,0,1,11.73-7.78,35.72,35.72,0,0,1,14.34-2.9c6.72,0,12.25,1.34,16.63,4a37.78,37.78,0,0,1,9.93,8.13,50.87,50.87,0,0,1,4.2,5.83,28.51,28.51,0,0,1,3,7q2.13,8,2.14,23.8,0,9-.35,14.58a31.11,31.11,0,0,1-1.79,9.22,18.51,18.51,0,0,1-4.68,6.55,55.3,55.3,0,0,1-8.24,5.83,47.17,47.17,0,0,1,8.74,6.81,19.88,19.88,0,0,1,4.41,7.27,38.12,38.12,0,0,1,1.68,10.33q.24,6,.23,15.18,0,8.51-.35,14.08a75.43,75.43,0,0,1-1.07,9.22,29.69,29.69,0,0,1-1.92,6.57,39.83,39.83,0,0,1-3.11,5.58,39.12,39.12,0,0,1-11.61,11.3c-4.69,3-10.88,4.49-18.53,4.49a42.72,42.72,0,0,1-12.22-1.94,33.48,33.48,0,0,1-11.72-6.32,34.17,34.17,0,0,1-8.72-11.42q-3.47-7-3.48-17.24V706.05h24.41v12.87a14.24,14.24,0,0,0,3.22,9.59,12,12,0,0,0,17.47,0c2.16-2.5,3.24-5.87,3.24-10.08V693.66c0-6.8-1.29-11.25-3.83-13.36a10.61,10.61,0,0,0-5.87-2.41,74.27,74.27,0,0,0-9.69-.5Zm-946,.85a12,12,0,1,0,23.93,0V624.32a12,12,0,1,0-23.93,0Zm935.67-443.09-10.7-29.46-52.46,63.71,4.61,15.82ZM2720.8,183l-9,31.2,57.26,48.92,5.4-15Zm726.45-320.46-17.55-16-27.52,101.8,8.44,9.61ZM2918.09-155l-16.57,19,35.83,93.28,8.9-8.19ZM3121-119.41V-266.09l-24.39,18.21V-274.1L3121-292.32h24.4v172.91Zm60.05,0v-23.32l44-84.26a31.15,31.15,0,0,0,3.83-11q.48-4.74.47-11.78,0-3.15-.12-6.68a16.19,16.19,0,0,0-1.32-6.19,11.39,11.39,0,0,0-3.58-4.49c-1.6-1.22-3.91-1.82-6.93-1.82a12,12,0,0,0-8.74,3.15q-3.24,3.17-3.23,9.23v14.09H3181v-13.6a37,37,0,0,1,2.88-14.57,37.3,37.3,0,0,1,7.89-11.9,35.83,35.83,0,0,1,11.48-8.14,34.47,34.47,0,0,1,14.36-3,35.25,35.25,0,0,1,16.38,3.52,32.67,32.67,0,0,1,11.37,9.59,42.46,42.46,0,0,1,6.35,13.84,65.3,65.3,0,0,1,2,16.52c0,4.2-.1,7.73-.25,10.56a62.85,62.85,0,0,1-.95,8.13,37,37,0,0,1-2.41,7.78c-1.1,2.58-2.62,5.74-4.53,9.47l-35.89,70.18h44v24.77Z"/><path class="cls-17" d="M3217.48,677.3,3453.35,1281,3411,1310.18,3175.52,686.73l-8.32,26.07L2944.57,936.94,2924,912.88l214.37-219.2L3162,662.54Z"/><path class="cls-18" d="M3190.89,579.41c23.6,0,42.75,34.07,42.75,76s-19.15,76-42.75,76c-3.77,0-18.5,1.26-22-.38-18.32-8.58-20.78-40.38-20.78-75.65,0-32.38,5.36-63.65,21.42-74.59C3174.3,577.58,3185.51,579.41,3190.89,579.41Z"/><ellipse class="cls-19" cx="3171.78" cy="655.42" rx="42.75" ry="76.02"/><path class="cls-20" d="M3129.22,669.6,2880.89,895.25,2901,932l252.1-242.78Z"/><path class="cls-18" d="M2901,932l11.33-.43L3158.1,698l-11-2.34Z"/><path class="cls-21" d="M3171.78,612.35c13.37,0,24.23,19.31,24.23,43.07s-10.86,43.08-24.23,43.08c-2.16,0-38.32.22-38.32.22s14.09-23.35,14.09-43.3c0-13.09-14.76-42.5-14.76-42.5S3165.77,612.35,3171.78,612.35Z"/><ellipse class="cls-22" cx="3132.93" cy="655.42" rx="24.23" ry="43.07"/><path class="cls-20" d="M3164.56,698s18-19.47,11.51-47.36l242,664.71L3386,1328.71Z"/><path class="cls-18" d="M3431.79,1311.72l-13.72,3.63L3176,650.9l7.8-.84Z"/><path class="cls-32" d="M2806.14,981.37l358.53-323.12,252.54,687.57s-219,85.74-411.37-33.31C2852,1217.29,2806.14,981.37,2806.14,981.37Z"/><path class="cls-33" d="M3785,472.18c6,60.93,9.17,123.58,9.17,187.52q0,39.54-1.58,78.41c-89.79,70.52-179.29,141.38-267.47,213.81-233.21,191.53-460.56,386.86-685.59,585.65-33.45-42.2-64.4-90.31-92.34-143.44C3092.84,1087.07,3435.43,775.14,3785,472.18ZM3416.48-337.46c131.26,94.8,239.63,269.19,306.15,489.45-368.62,308-733.24,621.37-1086.1,946-33.67-133.89-52.39-282.21-52.39-438.24a1901.64,1901.64,0,0,1,9.69-192.61q97.85-91.86,193.91-185.58C2925,147.21,3060.44,11,3197.5-123.5Q3306.82-230.78,3416.48-337.46Z"/><path class="cls-25" d="M137-560.62c173.81,0,310.23,190.47,314.92,506.12C456.34,246,310.77,451.63,137,451.63c-26.76,0-124.59-.65-124.59-.65S-178,181.83-178-54.5c0-260.24,206.4-505.23,206.4-505.23S125.08-560.62,137-560.62Z"/><path class="cls-34" d="M137-560.62c173.81,0,310.23,190.47,314.92,506.12C456.34,246,310.77,451.63,137,451.63c-26.76,0-124.59-.65-124.59-.65S-178,181.83-178-54.5c0-260.24,206.4-505.23,206.4-505.23S125.08-560.62,137-560.62Z"/><path class="cls-27" d="M30.17-560.62C204-560.62,340.4-370.15,345.09-54.5,349.55,246,204,451.63,30.17,451.63S-284.75,224.84-284.75-54.5-143.64-560.62,30.17-560.62Z"/><ellipse class="cls-28" cx="22.6" cy="-53.82" rx="297.09" ry="494.81"/><ellipse class="cls-29" cx="51.97" cy="-55.42" rx="278.48" ry="495.14"/><path class="cls-30" d="M66,308.17,53.18,341.59l.22.22a4.38,4.38,0,0,1,1.7-.73,13.1,13.1,0,0,1,3-.28,10.88,10.88,0,0,1,5.51,1.45,11.21,11.21,0,0,1,4,3.7,12.43,12.43,0,0,1,1.22,2.45,19.43,19.43,0,0,1,.77,3.24c.14,1.35.25,3,.33,5.09s.1,4.63.1,7.77c0,2.6,0,4.75-.1,6.42s-.19,3.08-.33,4.19a16.08,16.08,0,0,1-.83,3,20.21,20.21,0,0,1-1.27,2.56,15.28,15.28,0,0,1-5.89,5.7,17.1,17.1,0,0,1-8.32,2A16.52,16.52,0,0,1,45,386.35a16.19,16.19,0,0,1-5.83-5.65,15.38,15.38,0,0,1-1.37-2.56,11.53,11.53,0,0,1-.72-3,28.12,28.12,0,0,1-.44-4.19c-.07-1.67-.11-3.82-.11-6.42s0-4.49.11-6.09.18-3,.33-4.2a18.82,18.82,0,0,1,.66-3.07q.43-1.39,1-3l14.76-40Zm-7.16,48.39a5.51,5.51,0,1,0-11,0v14.75a5.51,5.51,0,1,0,11,0ZM169.87,327.7l7.62-8.75L161,276l-4.1,3.77Zm-243.56-8.06,8.08,7.37,12.66-46.86-3.88-4.42ZM260.67,172.15l4.14-14.36-26.36-22.52L236,142.18Zm-421.84-14,4.92,13.56,24.14-29.32-2.12-7.28ZM-172.61-8.56-159.83-42l-.22-.22a4.3,4.3,0,0,1-1.71.72,13,13,0,0,1-3,.29,11,11,0,0,1-5.51-1.45,11.3,11.3,0,0,1-4-3.7,9.66,9.66,0,0,1-1.21-2.4,15.44,15.44,0,0,1-.66-3.29,41.11,41.11,0,0,1-.44-5.09c-.08-2.05-.11-4.64-.11-7.77,0-2.61,0-4.75.11-6.43a31.28,31.28,0,0,1,.44-4.3,11.7,11.7,0,0,1,.71-2.91,21,21,0,0,1,1.27-2.57,15.28,15.28,0,0,1,5.89-5.7,17.1,17.1,0,0,1,8.32-2,16.36,16.36,0,0,1,8.25,2.07,16.11,16.11,0,0,1,5.84,5.64c.51.89.95,1.75,1.32,2.57a13.37,13.37,0,0,1,.88,2.91c.15,1.19.26,2.63.33,4.3s.11,3.82.11,6.43,0,4.49-.11,6.09-.18,3-.33,4.08-.46,2.25-.71,3.19-.57,1.92-.94,3L-160-8.56ZM270-57.34q5.07,0,7-1.23c1.28-.82,1.93-2.72,1.93-5.7V-74.55a5.64,5.64,0,0,0-1.49-4,5.29,5.29,0,0,0-4-1.56,4.72,4.72,0,0,0-4.24,1.9,6.7,6.7,0,0,0-1.27,3.69v6.48H256.64v-6.59a16.84,16.84,0,0,1,1.32-6.6,16,16,0,0,1,3.64-5.36A17.56,17.56,0,0,1,267-90.2a16.31,16.31,0,0,1,6.61-1.34,14.4,14.4,0,0,1,7.65,1.85,17.27,17.27,0,0,1,4.57,3.74,24,24,0,0,1,1.93,2.68A13.32,13.32,0,0,1,289.13-80a45.91,45.91,0,0,1,1,11q0,4.13-.16,6.7a14.55,14.55,0,0,1-.82,4.25,8.66,8.66,0,0,1-2.15,3,24.68,24.68,0,0,1-3.8,2.69,21.15,21.15,0,0,1,4,3.13,9,9,0,0,1,2,3.35,17.45,17.45,0,0,1,.78,4.75q.11,2.74.1,7,0,3.92-.16,6.48a33.76,33.76,0,0,1-.49,4.24,14.33,14.33,0,0,1-.88,3,19.93,19.93,0,0,1-1.43,2.57,18.18,18.18,0,0,1-5.35,5.2,15.75,15.75,0,0,1-8.53,2.06,19.41,19.41,0,0,1-5.62-.89,15.41,15.41,0,0,1-5.4-2.91,15.66,15.66,0,0,1-4-5.26,17.71,17.71,0,0,1-1.6-7.93v-6.48h11.23v5.92a6.55,6.55,0,0,0,1.49,4.42,5,5,0,0,0,4,1.73,5,5,0,0,0,4-1.73,6.88,6.88,0,0,0,1.49-4.64v-11.4c0-3.13-.6-5.18-1.77-6.15a4.83,4.83,0,0,0-2.7-1.11,33.53,33.53,0,0,0-4.46-.23Zm-435.41.39a5.42,5.42,0,0,0,1.65,4.13,5.4,5.4,0,0,0,3.86,1.56,5.4,5.4,0,0,0,3.85-1.56,5.42,5.42,0,0,0,1.65-4.13V-71.71a5.46,5.46,0,0,0-1.65-4.14,5.44,5.44,0,0,0-3.85-1.56,5.45,5.45,0,0,0-3.86,1.56,5.46,5.46,0,0,0-1.65,4.14ZM265.2-260.89l-4.92-13.56-24.15,29.33,2.13,7.28Zm-421.84-13.95-4.14,14.35L-134.43-238l2.49-6.91Zm334.36-147.5-8.08-7.37L157-382.85l3.89,4.42ZM-65.84-430.4l-7.62,8.75L-57-378.72l4.09-3.77ZM27.55-414v-67.51l-11.23,8.38v-12.07l11.23-8.38H38.78V-414Zm27.64,0v-10.73l20.26-38.78a14.41,14.41,0,0,0,1.77-5.09c.15-1.45.22-3.26.22-5.42,0-1,0-2-.06-3.07a7.39,7.39,0,0,0-.61-2.86A5.21,5.21,0,0,0,75.12-482a5.18,5.18,0,0,0-3.19-.84,5.49,5.49,0,0,0-4,1.45,5.69,5.69,0,0,0-1.48,4.25v6.48H55.19v-6.26a17,17,0,0,1,1.32-6.7,17.27,17.27,0,0,1,3.64-5.48,16.32,16.32,0,0,1,5.28-3.74,15.72,15.72,0,0,1,6.61-1.4,16.27,16.27,0,0,1,7.54,1.62,15,15,0,0,1,5.23,4.41,19.44,19.44,0,0,1,2.92,6.37,30.16,30.16,0,0,1,.94,7.61c0,1.93,0,3.55-.11,4.86a29.23,29.23,0,0,1-.44,3.74A16.39,16.39,0,0,1,87-462.08c-.5,1.19-1.2,2.64-2.08,4.36l-16.52,32.3H88.67V-414Z"/><path class="cls-31" d="M59,308.17,46.21,341.59l.22.22a4.44,4.44,0,0,1,1.71-.73,13.1,13.1,0,0,1,3-.28,10.85,10.85,0,0,1,5.5,1.45,11.16,11.16,0,0,1,4,3.7,12.94,12.94,0,0,1,1.21,2.45,19.43,19.43,0,0,1,.77,3.24c.15,1.35.25,3,.33,5.09s.11,4.63.11,7.77c0,2.6,0,4.75-.11,6.42s-.18,3.08-.33,4.19a15.36,15.36,0,0,1-.83,3,21.5,21.5,0,0,1-1.26,2.56,15.28,15.28,0,0,1-5.89,5.7,17.13,17.13,0,0,1-8.32,2,16.52,16.52,0,0,1-8.26-2.07,16,16,0,0,1-5.83-5.65,14.77,14.77,0,0,1-1.38-2.56,12.38,12.38,0,0,1-.72-3,28.12,28.12,0,0,1-.44-4.19c-.07-1.67-.11-3.82-.11-6.42s0-4.49.11-6.09.19-3,.34-4.2a16.94,16.94,0,0,1,.66-3.07q.43-1.39,1-3l14.75-40Zm-7.16,48.39a5.51,5.51,0,1,0-11,0v14.75a5.51,5.51,0,1,0,11,0ZM162.9,327.7l7.63-8.75L154,276l-4.09,3.77Zm-243.55-8.06,8.07,7.37,12.67-46.86-3.89-4.42ZM253.7,172.15l4.15-14.36-26.36-22.52L229,142.18Zm-421.84-14,4.92,13.56,24.15-29.32-2.12-7.28ZM-179.57-8.56-166.8-42l-.22-.22a4.3,4.3,0,0,1-1.71.72,13,13,0,0,1-3,.29,11,11,0,0,1-5.5-1.45,11.34,11.34,0,0,1-4-3.7,10,10,0,0,1-1.21-2.4A16.09,16.09,0,0,1-183.1-52a43.15,43.15,0,0,1-.44-5.09q-.11-3.08-.11-7.77,0-3.92.11-6.43a32.93,32.93,0,0,1,.44-4.3,12.14,12.14,0,0,1,.72-2.91,19.66,19.66,0,0,1,1.27-2.57,15.21,15.21,0,0,1,5.89-5.7,17.09,17.09,0,0,1,8.31-2,16.39,16.39,0,0,1,8.26,2.07,16.19,16.19,0,0,1,5.84,5.64c.51.89.95,1.75,1.32,2.57a13.94,13.94,0,0,1,.88,2.91c.14,1.19.25,2.63.33,4.3s.11,3.82.11,6.43,0,4.49-.11,6.09-.19,3-.33,4.08-.46,2.25-.72,3.19-.57,1.92-.93,3L-167-8.56ZM263-57.34c3.38,0,5.7-.41,7-1.23s1.93-2.72,1.93-5.7V-74.55a5.59,5.59,0,0,0-1.49-4,5.29,5.29,0,0,0-4-1.56,4.74,4.74,0,0,0-4.24,1.9,6.68,6.68,0,0,0-1.26,3.69v6.48H249.67v-6.59a16.84,16.84,0,0,1,1.33-6.6,16,16,0,0,1,3.63-5.36A17.73,17.73,0,0,1,260-90.2a16.23,16.23,0,0,1,6.6-1.34,14.35,14.35,0,0,1,7.65,1.85,17.11,17.11,0,0,1,4.57,3.74,22.85,22.85,0,0,1,1.94,2.68A12.94,12.94,0,0,1,282.16-80a45.29,45.29,0,0,1,1,11c0,2.75-.06,5-.16,6.7a14.53,14.53,0,0,1-.83,4.25,8.41,8.41,0,0,1-2.15,3,25,25,0,0,1-3.79,2.69,21.82,21.82,0,0,1,4,3.13,9.28,9.28,0,0,1,2,3.35,17.47,17.47,0,0,1,.77,4.75q.1,2.74.11,7c0,2.61-.06,4.77-.16,6.48a35.48,35.48,0,0,1-.5,4.24,13.24,13.24,0,0,1-.88,3,17.78,17.78,0,0,1-1.43,2.57,18.06,18.06,0,0,1-5.35,5.2,15.71,15.71,0,0,1-8.52,2.06,19.47,19.47,0,0,1-5.63-.89,15.28,15.28,0,0,1-5.39-2.91,15.68,15.68,0,0,1-4-5.26,17.84,17.84,0,0,1-1.6-7.93v-6.48h11.24v5.92a6.54,6.54,0,0,0,1.48,4.42,5.06,5.06,0,0,0,4,1.73,5,5,0,0,0,4-1.73,6.83,6.83,0,0,0,1.49-4.64v-11.4q0-4.69-1.76-6.15a4.87,4.87,0,0,0-2.7-1.11,33.63,33.63,0,0,0-4.46-.23Zm-435.42.39a5.39,5.39,0,0,0,1.66,4.13,5.38,5.38,0,0,0,3.85,1.56,5.38,5.38,0,0,0,3.85-1.56,5.39,5.39,0,0,0,1.66-4.13V-71.71a5.43,5.43,0,0,0-1.66-4.14,5.42,5.42,0,0,0-3.85-1.56,5.42,5.42,0,0,0-3.85,1.56,5.43,5.43,0,0,0-1.66,4.14ZM258.24-260.89l-4.93-13.56-24.14,29.33,2.12,7.28Zm-421.85-13.95-4.14,14.35L-141.4-238l2.49-6.91Zm334.36-147.5-8.08-7.37L150-382.85l3.88,4.42ZM-72.8-430.4l-7.63,8.75,16.49,42.93,4.1-3.77ZM20.59-414v-67.51L9.36-473.15v-12.07l11.23-8.38H31.82V-414Zm27.63,0v-10.73l20.27-38.78a14.37,14.37,0,0,0,1.76-5.09c.15-1.45.22-3.26.22-5.42,0-1,0-2-.06-3.07a7.39,7.39,0,0,0-.6-2.86A5.39,5.39,0,0,0,68.16-482a5.2,5.2,0,0,0-3.19-.84,5.49,5.49,0,0,0-4,1.45,5.66,5.66,0,0,0-1.49,4.25v6.48H48.22v-6.26a17,17,0,0,1,1.33-6.7,17.24,17.24,0,0,1,3.63-5.48,16.37,16.37,0,0,1,5.29-3.74,15.7,15.7,0,0,1,6.6-1.4,16.21,16.21,0,0,1,7.54,1.62,15.12,15.12,0,0,1,5.24,4.41,19.64,19.64,0,0,1,2.92,6.37,30.16,30.16,0,0,1,.94,7.61c0,1.93,0,3.55-.12,4.86a29.26,29.26,0,0,1-.43,3.74,17.56,17.56,0,0,1-1.11,3.58q-.76,1.79-2.09,4.36l-16.52,32.3H81.71V-414Z"/><path class="cls-17" d="M65-47.32,173.56,230.52,154.06,244,45.68-43,41.85-31-60.62,72.18l-9.46-11.07L28.58-39.79l10.9-14.33Z"/><path class="cls-20" d="M24.38-50.87-89.92,53l9.26,16.92,116-111.74Z"/><path class="cls-18" d="M-80.66,69.91l5.22-.2L37.66-37.79l-5-1.08Z"/><path class="cls-20" d="M40.64-37.8a25.36,25.36,0,0,0,5.3-21.79L157.32,246.35l-14.75,6.15Z"/><path class="cls-18" d="M163.63,244.68l-6.31,1.67L45.9-59.47l3.59-.39Z"/><path class="cls-35" d="M-124.33,92.63l165-148.72L156.93,260.37S56.11,299.84-32.41,245C-103.21,201.22-124.33,92.63-124.33,92.63Z"/><path class="cls-36" d="M326.23-141.73c2.77,28,4.21,56.88,4.21,86.31q0,18.2-.72,36.08C288.39,13.12,247.2,45.74,206.61,79.07,99.27,167.23-5.37,257.13-108.94,348.63a424,424,0,0,1-42.5-66C7.63,141.28,165.31-2.29,326.23-141.73ZM156.59-514.38C217-470.75,266.88-390.48,297.5-289.1,127.84-147.35-40-3.11-202.39,146.28c-15.5-61.62-24.12-129.89-24.12-201.7A875.87,875.87,0,0,1-222-144.08q45-42.27,89.25-85.41C-69.62-291.3-7.28-354,55.8-415.9Q106.13-465.28,156.59-514.38Z"/><path class="cls-25" d="M532.53,688.41c264,0,471.16,289.29,478.28,768.67,6.78,456.31-214.31,768.68-478.28,768.68-40.65,0-189.22-1-189.22-1S54.25,1816,54.25,1457.08c0-395.24,313.47-767.31,313.47-767.31S514.49,688.41,532.53,688.41Z"/><path class="cls-37" d="M532.53,688.41c264,0,471.16,289.29,478.28,768.67,6.78,456.31-214.31,768.68-478.28,768.68-40.65,0-189.22-1-189.22-1S54.25,1816,54.25,1457.08c0-395.24,313.47-767.31,313.47-767.31S514.49,688.41,532.53,688.41Z"/><path class="cls-38" d="M370.34,688.41c264,0,471.16,289.29,478.28,768.67,6.78,456.31-214.31,768.68-478.28,768.68s-478.28-344.43-478.28-768.68S106.37,688.41,370.34,688.41Z"/><ellipse class="cls-39" cx="358.84" cy="1458.12" rx="451.21" ry="751.49"/><ellipse class="cls-40" cx="403.45" cy="1455.68" rx="422.93" ry="751.98"/><path class="cls-39" d="M424.69,2007.87l-19.4,50.76.33.33a6.87,6.87,0,0,1,2.59-1.1,20.4,20.4,0,0,1,4.6-.42,16.57,16.57,0,0,1,8.37,2.2,17.06,17.06,0,0,1,6,5.61A19.24,19.24,0,0,1,429,2069a30.38,30.38,0,0,1,1.17,4.92c.22,2,.38,4.61.5,7.73s.16,7,.16,11.8c0,4-.05,7.21-.16,9.76s-.28,4.66-.5,6.36a23.9,23.9,0,0,1-1.26,4.59A31.08,31.08,0,0,1,427,2118a23.16,23.16,0,0,1-8.95,8.65,25.91,25.91,0,0,1-12.63,3.06,25,25,0,0,1-12.54-3.13,24.45,24.45,0,0,1-8.86-8.58,22.37,22.37,0,0,1-2.09-3.9,18.3,18.3,0,0,1-1.1-4.59,44.1,44.1,0,0,1-.66-6.36c-.11-2.55-.17-5.81-.17-9.76q0-5.61.17-9.25c.11-2.44.28-4.56.5-6.38a28.08,28.08,0,0,1,1-4.66c.44-1.42.94-2.91,1.5-4.5l22.41-60.77Zm-10.87,73.5a8.37,8.37,0,1,0-16.73,0v22.41a8.37,8.37,0,1,0,16.73,0Zm168.69-43.82,11.58-13.3L569,1959.05l-6.22,5.73Zm-369.9-12.24,12.27,11.18,19.23-71.16-5.9-6.72Zm507.8-224,6.3-21.81-40-34.2-3.78,10.49ZM79.74,1780.1l7.48,20.59,36.67-44.53-3.22-11.06ZM62.38,1526.85l19.4-50.76-.34-.33a6.58,6.58,0,0,1-2.59,1.1,19.76,19.76,0,0,1-4.6.43,16.51,16.51,0,0,1-8.36-2.21,17.06,17.06,0,0,1-6-5.61,14.83,14.83,0,0,1-1.84-3.64,23.45,23.45,0,0,1-1-5,61.65,61.65,0,0,1-.67-7.72c-.11-3.12-.17-7-.17-11.8,0-4,.06-7.22.17-9.76A47.1,47.1,0,0,1,57,1425a18.13,18.13,0,0,1,1.08-4.41,31.93,31.93,0,0,1,1.93-3.9A23.32,23.32,0,0,1,69,1408a26,26,0,0,1,12.63-3,24.84,24.84,0,0,1,12.54,3.14,24.48,24.48,0,0,1,8.87,8.58,40.25,40.25,0,0,1,2,3.9,20.18,20.18,0,0,1,1.34,4.41q.33,2.71.5,6.54c.11,2.54.17,5.8.17,9.76q0,5.61-.17,9.25c-.11,2.44-.28,4.5-.5,6.2s-.69,3.42-1.09,4.84-.86,2.91-1.42,4.49l-22.41,60.77Zm672.15-74.09c5.13,0,8.66-.62,10.62-1.86s2.93-4.13,2.93-8.66v-15.61a8.51,8.51,0,0,0-2.26-6.12,8,8,0,0,0-6.11-2.37c-3,0-5.15,1-6.44,2.89a10.16,10.16,0,0,0-1.91,5.6v9.84H714.29v-10a25.47,25.47,0,0,1,2-10,24.31,24.31,0,0,1,5.51-8.15,27.42,27.42,0,0,1,8.2-5.44,25,25,0,0,1,10-2,22,22,0,0,1,11.63,2.81,26.52,26.52,0,0,1,6.94,5.68,36.08,36.08,0,0,1,2.93,4.08,19.32,19.32,0,0,1,2.09,4.92q1.5,5.6,1.5,16.63c0,4.19-.08,7.58-.24,10.19a21.66,21.66,0,0,1-1.26,6.45,13,13,0,0,1-3.26,4.58,38.19,38.19,0,0,1-5.77,4.07,33.09,33.09,0,0,1,6.11,4.76,13.92,13.92,0,0,1,3.08,5.09,26.24,26.24,0,0,1,1.18,7.22q.16,4.15.16,10.61,0,5.94-.24,9.84a53,53,0,0,1-.75,6.45,21.21,21.21,0,0,1-1.34,4.59,29,29,0,0,1-2.18,3.9,27.32,27.32,0,0,1-8.12,7.9c-3.27,2.08-7.6,3.13-13,3.13a29.86,29.86,0,0,1-8.54-1.35,23.14,23.14,0,0,1-8.19-4.42,23.94,23.94,0,0,1-6.1-8,27.18,27.18,0,0,1-2.43-12v-9.84h17.07v9a10,10,0,0,0,2.25,6.71,8.4,8.4,0,0,0,12.21,0,10.44,10.44,0,0,0,2.26-7v-17.31c0-4.75-.9-7.87-2.68-9.34a7.32,7.32,0,0,0-4.1-1.69,51.75,51.75,0,0,0-6.77-.34Zm-661.28.59a8.37,8.37,0,1,0,16.72,0V1431a8.37,8.37,0,1,0-16.72,0ZM727.3,1143.63,719.82,1123l-36.67,44.53,3.23,11.06Zm-640.67-21.2-6.29,21.81,40,34.2,3.78-10.49Zm507.8-224-12.27-11.18L562.92,958.4l5.91,6.72ZM224.54,886.19,213,899.48l25,65.2,6.22-5.73Zm141.83,24.87V808.53l-17.05,12.73V802.93l17.05-12.73h17.06V911.06Zm42,0V894.77l30.78-58.91a21.85,21.85,0,0,0,2.68-7.72c.22-2.21.33-4.95.33-8.24,0-1.47,0-3-.09-4.66a11.12,11.12,0,0,0-.92-4.33,7.18,7.18,0,0,0-7.35-4.42,8.34,8.34,0,0,0-6.1,2.21q-2.26,2.2-2.26,6.45V825H408.34v-9.51a25.87,25.87,0,0,1,2-10.18,26.37,26.37,0,0,1,5.51-8.32,25.12,25.12,0,0,1,8-5.69,24.13,24.13,0,0,1,10-2.12,24.7,24.7,0,0,1,11.46,2.46,23,23,0,0,1,7.95,6.71,29.61,29.61,0,0,1,4.43,9.67,45.8,45.8,0,0,1,1.42,11.55q0,4.41-.17,7.38a44.12,44.12,0,0,1-.66,5.69,25.69,25.69,0,0,1-1.68,5.43q-1.15,2.71-3.17,6.62l-25.09,49.06h30.77v17.31Z"/><path class="cls-41" d="M414.11,2007.87l-19.4,50.76.33.33a6.85,6.85,0,0,1,2.6-1.1,20.3,20.3,0,0,1,4.59-.42,16.57,16.57,0,0,1,8.37,2.2,17.06,17.06,0,0,1,6,5.61,19.24,19.24,0,0,1,1.84,3.73,29.36,29.36,0,0,1,1.17,4.92c.22,2,.38,4.61.5,7.73s.16,7,.16,11.8c0,4-.05,7.21-.16,9.76s-.28,4.66-.5,6.36a24,24,0,0,1-1.25,4.59,32.66,32.66,0,0,1-1.93,3.9,23.16,23.16,0,0,1-8.95,8.65,25.91,25.91,0,0,1-12.63,3.06,25,25,0,0,1-12.54-3.13,24.53,24.53,0,0,1-8.86-8.58,22.37,22.37,0,0,1-2.09-3.9,18.32,18.32,0,0,1-1.09-4.59,42.56,42.56,0,0,1-.67-6.36c-.1-2.55-.17-5.81-.17-9.76,0-3.74.07-6.82.17-9.25s.28-4.56.51-6.38a27.12,27.12,0,0,1,1-4.66c.44-1.42.95-2.91,1.5-4.5L395,2007.87Zm-10.87,73.5a8.37,8.37,0,1,0-16.72,0v22.41a8.37,8.37,0,1,0,16.72,0Zm168.69-43.82,11.58-13.3-25-65.2-6.22,5.73ZM202,2025.31l12.26,11.18,19.24-71.16-5.9-6.72Zm507.79-224,6.3-21.81-40-34.2-3.77,10.49ZM69.17,1780.1l7.47,20.59,36.67-44.53-3.22-11.06ZM51.8,1526.85l19.4-50.76-.33-.33a6.7,6.7,0,0,1-2.6,1.1,19.76,19.76,0,0,1-4.6.43,16.54,16.54,0,0,1-8.36-2.21,17.06,17.06,0,0,1-6-5.61,14.83,14.83,0,0,1-1.84-3.64,24.09,24.09,0,0,1-1-5,61.65,61.65,0,0,1-.67-7.72c-.11-3.12-.17-7-.17-11.8,0-4,.06-7.22.17-9.76a47.1,47.1,0,0,1,.67-6.54,18.13,18.13,0,0,1,1.08-4.41,31.93,31.93,0,0,1,1.93-3.9,23.28,23.28,0,0,1,8.95-8.67A26,26,0,0,1,71,1405a24.79,24.79,0,0,1,12.54,3.14,24.48,24.48,0,0,1,8.87,8.58,42.83,42.83,0,0,1,2,3.9,20.76,20.76,0,0,1,1.33,4.41c.23,1.81.39,4,.51,6.54s.16,5.8.16,9.76q0,5.61-.16,9.25c-.12,2.44-.28,4.5-.51,6.2s-.69,3.42-1.08,4.84-.87,2.91-1.43,4.49l-22.4,60.77ZM724,1452.76q7.69,0,10.63-1.86t2.92-8.66v-15.61a8.51,8.51,0,0,0-2.26-6.12,8,8,0,0,0-6.11-2.37q-4.51,0-6.43,2.89a10.1,10.1,0,0,0-1.92,5.6v9.84H703.71v-10a25.47,25.47,0,0,1,2-10,24.46,24.46,0,0,1,5.51-8.15,27.42,27.42,0,0,1,8.2-5.44,25,25,0,0,1,10-2,22,22,0,0,1,11.62,2.81,26.52,26.52,0,0,1,6.94,5.68,36.2,36.2,0,0,1,2.94,4.08,20.06,20.06,0,0,1,2.09,4.92q1.49,5.6,1.5,16.63c0,4.19-.09,7.58-.25,10.19a22,22,0,0,1-1.25,6.45,13.12,13.12,0,0,1-3.27,4.58,37.69,37.69,0,0,1-5.77,4.07,33.09,33.09,0,0,1,6.11,4.76,14.08,14.08,0,0,1,3.09,5.09,26.65,26.65,0,0,1,1.17,7.22q.17,4.15.17,10.61c0,4-.09,7.24-.25,9.84a53,53,0,0,1-.75,6.45,20.66,20.66,0,0,1-1.34,4.59,30,30,0,0,1-2.17,3.9,27.56,27.56,0,0,1-8.12,7.9c-3.28,2.08-7.61,3.13-13,3.13a29.85,29.85,0,0,1-8.53-1.35,23.19,23.19,0,0,1-8.2-4.42,23.79,23.79,0,0,1-6.09-8,27,27,0,0,1-2.44-12v-9.84h17.07v9a10,10,0,0,0,2.25,6.71,8.4,8.4,0,0,0,12.21,0,10.44,10.44,0,0,0,2.26-7v-17.31c0-4.75-.9-7.87-2.68-9.34a7.26,7.26,0,0,0-4.1-1.69,51.65,51.65,0,0,0-6.77-.34Zm-661.28.59a8.37,8.37,0,1,0,16.72,0V1431a8.37,8.37,0,1,0-16.72,0Zm654.05-309.72L709.24,1123l-36.67,44.53,3.23,11.06Zm-640.67-21.2-6.29,21.81,40,34.2,3.78-10.49Zm507.8-224-12.26-11.18L552.35,958.4l5.9,6.72ZM214,886.19l-11.58,13.29,25,65.2,6.22-5.73Zm141.83,24.87V808.53l-17.05,12.73V802.93l17.05-12.73h17.06V911.06Zm42,0V894.77l30.78-58.91a21.65,21.65,0,0,0,2.68-7.72c.22-2.21.33-4.95.33-8.24,0-1.47,0-3-.08-4.66a11.31,11.31,0,0,0-.93-4.33,7.18,7.18,0,0,0-7.34-4.42,8.34,8.34,0,0,0-6.11,2.21q-2.26,2.2-2.26,6.45V825H397.76v-9.51a25.87,25.87,0,0,1,2-10.18A26.23,26.23,0,0,1,405.3,797a25,25,0,0,1,8-5.69,24.14,24.14,0,0,1,10-2.12,24.69,24.69,0,0,1,11.45,2.46,22.94,22.94,0,0,1,7.95,6.71,29.61,29.61,0,0,1,4.43,9.67,45.8,45.8,0,0,1,1.43,11.55c0,2.94-.07,5.4-.17,7.38a45.93,45.93,0,0,1-.67,5.69,25.69,25.69,0,0,1-1.68,5.43q-1.16,2.71-3.17,6.62l-25.09,49.06h30.78v17.31Z"/><path class="cls-17" d="M423.24,1468l164.88,422-29.63,20.43L393.91,1474.57l-5.82,18.23L232.47,1649.47l-14.38-16.81,149.84-153.23,16.55-21.77Z"/><path class="cls-18" d="M404.65,1399.55c16.5,0,29.88,23.82,29.88,53.14s-13.38,53.14-29.88,53.14c-2.64,0-12.93.88-15.36-.27-12.81-6-14.53-28.22-14.53-52.87,0-22.64,3.75-44.5,15-52.15C393.05,1398.28,400.89,1399.55,404.65,1399.55Z"/><ellipse class="cls-19" cx="391.3" cy="1452.69" rx="29.89" ry="53.14"/><path class="cls-20" d="M361.55,1462.6,188,1620.33,202,1646l176.22-169.71Z"/><path class="cls-18" d="M202,1646l7.91-.31,171.79-163.26-7.67-1.64Z"/><path class="cls-21" d="M391.29,1422.58c9.35,0,16.94,13.49,16.94,30.11s-7.59,30.11-16.94,30.11l-26.78.15s9.85-16.32,9.85-30.26c0-9.15-10.32-29.71-10.32-29.71S387.09,1422.58,391.29,1422.58Z"/><ellipse class="cls-22" cx="364.13" cy="1452.69" rx="16.93" ry="30.11"/><path class="cls-20" d="M386.25,1482.45s12.59-13.61,8-33.1L563.45,1914,541,1923.33Z"/><path class="cls-18" d="M573,1911.45l-9.59,2.54L394.24,1449.53l5.45-.59Z"/><path class="cls-42" d="M135.7,1680.53l250.62-225.86,176.53,480.62S409.74,1995.22,275.3,1912C167.78,1845.44,135.7,1680.53,135.7,1680.53Z"/><path class="cls-43" d="M820,1324.6c4.21,42.59,6.4,86.38,6.4,131.08q0,27.64-1.1,54.8c-62.77,49.3-125.33,98.83-187,149.46-163,133.89-321.94,270.43-479.24,409.38-23.38-29.5-45-63.12-64.54-100.26C336.11,1754.42,575.59,1536.37,820,1324.6Zm-257.64-566c91.75,66.27,167.51,188.17,214,342.14C518.68,1316.06,263.8,1535.13,17.14,1762c-23.53-93.6-36.62-197.27-36.62-306.34A1330.09,1330.09,0,0,1-12.71,1321q68.4-64.21,135.55-129.73c96-93.87,190.63-189.08,286.43-283.11Q485.7,833.22,562.34,758.64Z"/></g></svg>